<?xml version="1.0" encoding="us-ascii" standalone="no"?><svg xmlns="http://www.w3.org/2000/svg" xmlns:xlink="http://www.w3.org/1999/xlink" contentStyleType="text/css" height="465px" preserveAspectRatio="none" style="width:757px;height:465px;background:#FFFFFF;" version="1.1" viewBox="0 0 757 465" width="757px" zoomAndPan="magnify"><defs/><g><!--class ICrashDataExport--><g id="elem_ICrashDataExport"><rect codeLine="1" fill="#F1F1F1" height="80.5938" id="ICrashDataExport" rx="2.5" ry="2.5" style="stroke:#181818;stroke-width:0.5;" width="359" x="82.5" y="7"/><ellipse cx="198.25" cy="23" fill="#B4A7E5" rx="11" ry="11" style="stroke:#181818;stroke-width:1.0;"/><path d="M194.1719,18.7656 L194.1719,16.6094 L201.5625,16.6094 L201.5625,18.7656 L199.0938,18.7656 L199.0938,26.8438 L201.5625,26.8438 L201.5625,29 L194.1719,29 L194.1719,26.8438 L196.6406,26.8438 L196.6406,18.7656 L194.1719,18.7656 Z " fill="#000000"/><text fill="#000000" font-family="sans-serif" font-size="14" font-style="italic" lengthAdjust="spacing" textLength="119" x="218.75" y="27.8467">ICrashDataExport</text><line style="stroke:#181818;stroke-width:0.5;" x1="83.5" x2="440.5" y1="39" y2="39"/><line style="stroke:#181818;stroke-width:0.5;" x1="83.5" x2="440.5" y1="47" y2="47"/><text fill="#000000" font-family="sans-serif" font-size="14" lengthAdjust="spacing" textLength="301" x="88.5" y="63.9951">Dump(dumpFile: ICrashDataDumpFile): void</text><text fill="#000000" font-family="sans-serif" font-size="14" lengthAdjust="spacing" textLength="347" x="88.5" y="80.292">DumpAsync(dumpFile: ICrashDataDumpFile): Task</text></g><!--class CrashDataExport--><g id="elem_CrashDataExport"><rect codeLine="6" fill="#F1F1F1" height="202.6719" id="CrashDataExport" rx="2.5" ry="2.5" style="stroke:#181818;stroke-width:0.5;" width="373" x="75.5" y="147.6"/><ellipse cx="194.25" cy="163.6" fill="#A9DCDF" rx="11" ry="11" style="stroke:#181818;stroke-width:1.0;"/><path d="M194.3594,158.9437 L193.2031,164.0219 L195.5313,164.0219 L194.3594,158.9437 Z M192.875,156.7094 L195.8594,156.7094 L199.2188,169.1 L196.7656,169.1 L196,166.0375 L192.7188,166.0375 L191.9688,169.1 L189.5313,169.1 L192.875,156.7094 Z " fill="#000000"/><text fill="#000000" font-family="sans-serif" font-size="14" font-style="italic" lengthAdjust="spacing" textLength="116" x="214.75" y="168.4467">CrashDataExport</text><rect fill="#FFFFFF" height="15.9688" style="stroke:#181818;stroke-width:1.0;stroke-dasharray:2.0,2.0;" width="9" x="442.5" y="144.6"/><text fill="#000000" font-family="sans-serif" font-size="12" font-style="italic" lengthAdjust="spacing" textLength="7" x="443.5" y="156.7387">T</text><line style="stroke:#181818;stroke-width:0.5;" x1="76.5" x2="447.5" y1="179.6" y2="179.6"/><polygon fill="#FFFF44" points="86.5,188.2484,90.5,192.2484,86.5,196.2484,82.5,192.2484" style="stroke:#B38D22;stroke-width:1.0;"/><text fill="#000000" font-family="sans-serif" font-size="14" lengthAdjust="spacing" textLength="232" x="95.5" y="196.5951">CrashDataExport(row: DumpRow)</text><line style="stroke:#181818;stroke-width:1.0;" x1="76.5" x2="447.5" y1="203.8969" y2="203.8969"/><polygon fill="none" points="86.5,212.5453,90.5,216.5453,86.5,220.5453,82.5,216.5453" style="stroke:#B38D22;stroke-width:1.0;"/><text fill="#000000" font-family="sans-serif" font-size="14" font-style="italic" lengthAdjust="spacing" textLength="126" x="95.5" y="220.892">TableName: string</text><polygon fill="none" points="86.5,228.8422,90.5,232.8422,86.5,236.8422,82.5,232.8422" style="stroke:#B38D22;stroke-width:1.0;"/><text fill="#000000" font-family="sans-serif" font-size="14" font-style="italic" lengthAdjust="spacing" textLength="118" x="95.5" y="237.1889">RowName: string</text><line style="stroke:#181818;stroke-width:1.0;" x1="76.5" x2="447.5" y1="244.4906" y2="244.4906"/><polygon fill="#FFFF44" points="86.5,253.1391,90.5,257.1391,86.5,261.1391,82.5,257.1391" style="stroke:#B38D22;stroke-width:1.0;"/><text fill="#000000" font-family="sans-serif" font-size="14" font-style="italic" lengthAdjust="spacing" textLength="201" x="95.5" y="261.4857">GetRows(): IEnumerable&lt;T&gt;</text><polygon fill="#FFFF44" points="86.5,269.4359,90.5,273.4359,86.5,277.4359,82.5,273.4359" style="stroke:#B38D22;stroke-width:1.0;"/><text fill="#000000" font-family="sans-serif" font-size="14" font-style="italic" lengthAdjust="spacing" textLength="252" x="95.5" y="277.7826">UpdateRow(item: T, row: DumpRow)</text><polygon fill="#FFFF44" points="86.5,285.7328,90.5,289.7328,86.5,293.7328,82.5,289.7328" style="stroke:#B38D22;stroke-width:1.0;"/><text fill="#000000" font-family="sans-serif" font-size="14" lengthAdjust="spacing" textLength="140" x="95.5" y="294.0795">IsValid(): bool = true</text><polygon fill="#FFFF44" points="86.5,302.0297,90.5,306.0297,86.5,310.0297,82.5,306.0297" style="stroke:#B38D22;stroke-width:1.0;"/><text fill="#000000" font-family="sans-serif" font-size="14" lengthAdjust="spacing" textLength="299" x="95.5" y="310.3764">GetField(fieldAccess: Func&lt;string&gt;): string</text><ellipse cx="86.5" cy="323.3266" fill="#84BE84" rx="3" ry="3" style="stroke:#038048;stroke-width:1.0;"/><text fill="#000000" font-family="sans-serif" font-size="14" lengthAdjust="spacing" textLength="301" x="95.5" y="326.6732">Dump(dumpFile: ICrashDataDumpFile): void</text><ellipse cx="86.5" cy="339.6234" fill="#84BE84" rx="3" ry="3" style="stroke:#038048;stroke-width:1.0;"/><text fill="#000000" font-family="sans-serif" font-size="14" lengthAdjust="spacing" textLength="347" x="95.5" y="342.9701">DumpAsync(dumpFile: ICrashDataDumpFile): Task</text></g><!--class DumpRow--><g id="elem_DumpRow"><rect codeLine="20" fill="#F1F1F1" height="137.4844" id="DumpRow" rx="2.5" ry="2.5" style="stroke:#181818;stroke-width:0.5;" width="267" x="483.5" y="180.19"/><ellipse cx="576.75" cy="196.19" fill="#ADD1B2" rx="11" ry="11" style="stroke:#181818;stroke-width:1.0;"/><path d="M579.7188,201.8306 Q579.1406,202.1275 578.5,202.2681 Q577.8594,202.4244 577.1563,202.4244 Q574.6563,202.4244 573.3281,200.7838 Q572.0156,199.1275 572.0156,196.0025 Q572.0156,192.8775 573.3281,191.2213 Q574.6563,189.565 577.1563,189.565 Q577.8594,189.565 578.5,189.7213 Q579.1563,189.8775 579.7188,190.1744 L579.7188,192.8931 Q579.0938,192.315 578.5,192.0494 Q577.9063,191.7681 577.2813,191.7681 Q575.9375,191.7681 575.25,192.8463 Q574.5625,193.9088 574.5625,196.0025 Q574.5625,198.0963 575.25,199.1744 Q575.9375,200.2369 577.2813,200.2369 Q577.9063,200.2369 578.5,199.9713 Q579.0938,199.69 579.7188,199.1119 L579.7188,201.8306 Z " fill="#000000"/><text fill="#000000" font-family="sans-serif" font-size="14" lengthAdjust="spacing" textLength="72" x="597.25" y="201.0367">DumpRow</text><line style="stroke:#181818;stroke-width:0.5;" x1="484.5" x2="749.5" y1="212.19" y2="212.19"/><text fill="#000000" font-family="sans-serif" font-size="14" lengthAdjust="spacing" textLength="189" x="489.5" y="229.1851">DumpRow(header: string[])</text><line style="stroke:#181818;stroke-width:1.0;" x1="484.5" x2="749.5" y1="236.4869" y2="236.4869"/><text fill="#000000" font-family="sans-serif" font-size="14" lengthAdjust="spacing" textLength="155" x="489.5" y="253.482">this[key: string]: string</text><line style="stroke:#181818;stroke-width:1.0;" x1="484.5" x2="749.5" y1="260.7838" y2="260.7838"/><text fill="#000000" font-family="sans-serif" font-size="14" lengthAdjust="spacing" textLength="243" x="489.5" y="277.7789">GetHeader(): IEnumerable&lt;string&gt;</text><text fill="#000000" font-family="sans-serif" font-size="14" lengthAdjust="spacing" textLength="255" x="489.5" y="294.0757">GetRow(): IDictionary&lt;string, string&gt;</text><text fill="#000000" font-family="sans-serif" font-size="14" lengthAdjust="spacing" textLength="82" x="489.5" y="310.3726">Clear(): void</text></g><!--class AssemblyDump--><g id="elem_AssemblyDump"><rect codeLine="30" fill="#F1F1F1" height="48" id="AssemblyDump" rx="2.5" ry="2.5" style="stroke:#181818;stroke-width:0.5;" width="202" x="7" y="410.27"/><ellipse cx="22" cy="426.27" fill="#ADD1B2" rx="11" ry="11" style="stroke:#181818;stroke-width:1.0;"/><path d="M24.9688,431.9106 Q24.3906,432.2075 23.75,432.3481 Q23.1094,432.5044 22.4063,432.5044 Q19.9063,432.5044 18.5781,430.8638 Q17.2656,429.2075 17.2656,426.0825 Q17.2656,422.9575 18.5781,421.3013 Q19.9063,419.645 22.4063,419.645 Q23.1094,419.645 23.75,419.8013 Q24.4063,419.9575 24.9688,420.2544 L24.9688,422.9731 Q24.3438,422.395 23.75,422.1294 Q23.1563,421.8481 22.5313,421.8481 Q21.1875,421.8481 20.5,422.9263 Q19.8125,423.9888 19.8125,426.0825 Q19.8125,428.1763 20.5,429.2544 Q21.1875,430.3169 22.5313,430.3169 Q23.1563,430.3169 23.75,430.0513 Q24.3438,429.77 24.9688,429.1919 L24.9688,431.9106 Z " fill="#000000"/><text fill="#000000" font-family="sans-serif" font-size="14" lengthAdjust="spacing" textLength="108" x="36" y="431.1167">AssemblyDump</text><rect fill="#FFFFFF" height="15.9688" style="stroke:#181818;stroke-width:1.0;stroke-dasharray:2.0,2.0;" width="60" x="152" y="407.27"/><text fill="#000000" font-family="sans-serif" font-size="12" font-style="italic" lengthAdjust="spacing" textLength="58" x="153" y="419.4087">Assembly</text><line style="stroke:#181818;stroke-width:0.5;" x1="8" x2="208" y1="442.27" y2="442.27"/><line style="stroke:#181818;stroke-width:0.5;" x1="8" x2="208" y1="450.27" y2="450.27"/></g><!--class EnvironmentDump--><g id="elem_EnvironmentDump"><rect codeLine="31" fill="#F1F1F1" height="48" id="EnvironmentDump" rx="2.5" ry="2.5" style="stroke:#181818;stroke-width:0.5;" width="345" x="244.5" y="410.27"/><ellipse cx="259.5" cy="426.27" fill="#ADD1B2" rx="11" ry="11" style="stroke:#181818;stroke-width:1.0;"/><path d="M262.4688,431.9106 Q261.8906,432.2075 261.25,432.3481 Q260.6094,432.5044 259.9063,432.5044 Q257.4063,432.5044 256.0781,430.8638 Q254.7656,429.2075 254.7656,426.0825 Q254.7656,422.9575 256.0781,421.3013 Q257.4063,419.645 259.9063,419.645 Q260.6094,419.645 261.25,419.8013 Q261.9063,419.9575 262.4688,420.2544 L262.4688,422.9731 Q261.8438,422.395 261.25,422.1294 Q260.6563,421.8481 260.0313,421.8481 Q258.6875,421.8481 258,422.9263 Q257.3125,423.9888 257.3125,426.0825 Q257.3125,428.1763 258,429.2544 Q258.6875,430.3169 260.0313,430.3169 Q260.6563,430.3169 261.25,430.0513 Q261.8438,429.77 262.4688,429.1919 L262.4688,431.9106 Z " fill="#000000"/><text fill="#000000" font-family="sans-serif" font-size="14" lengthAdjust="spacing" textLength="129" x="273.5" y="431.1167">EnvironmentDump</text><rect fill="#FFFFFF" height="15.9688" style="stroke:#181818;stroke-width:1.0;stroke-dasharray:2.0,2.0;" width="182" x="410.5" y="407.27"/><text fill="#000000" font-family="sans-serif" font-size="12" font-style="italic" lengthAdjust="spacing" textLength="180" x="411.5" y="419.4087">KeyValuePair&lt;string, string&gt;</text><line style="stroke:#181818;stroke-width:0.5;" x1="245.5" x2="588.5" y1="442.27" y2="442.27"/><line style="stroke:#181818;stroke-width:0.5;" x1="245.5" x2="588.5" y1="450.27" y2="450.27"/></g><!--reverse link ICrashDataExport to CrashDataExport--><g id="link_ICrashDataExport_CrashDataExport"><path codeLine="33" d="M262,108.6 C262,120.87 262,134.09 262,147.33 " fill="none" id="ICrashDataExport-backto-CrashDataExport" style="stroke:#181818;stroke-width:1.0;stroke-dasharray:7.0,7.0;"/><polygon fill="none" points="255,108.74,262,88.74,269,108.74,255,108.74" style="stroke:#181818;stroke-width:1.0;"/></g><!--reverse link CrashDataExport to DumpRow--><g id="link_CrashDataExport_DumpRow"><path codeLine="34" d="M462.74,248.93 C469.49,248.93 476.25,248.93 483.01,248.93 " fill="none" id="CrashDataExport-backto-DumpRow" style="stroke:#181818;stroke-width:1.0;"/><polygon fill="none" points="449.86,248.93,455.86,252.93,461.86,248.93,455.86,244.93,449.86,248.93" style="stroke:#181818;stroke-width:1.0;"/></g><!--reverse link CrashDataExport to AssemblyDump--><g id="link_CrashDataExport_AssemblyDump"><path codeLine="35" d="M163.9,366.72 C150.13,383.11 137.34,398.34 127.47,410.09 " fill="none" id="CrashDataExport-backto-AssemblyDump" style="stroke:#181818;stroke-width:1.0;stroke-dasharray:7.0,7.0;"/><polygon fill="none" points="159.12,362.53,177.34,351.72,169.84,371.54,159.12,362.53" style="stroke:#181818;stroke-width:1.0;"/></g><!--reverse link CrashDataExport to EnvironmentDump--><g id="link_CrashDataExport_EnvironmentDump"><path codeLine="36" d="M360.73,366.72 C374.59,383.11 387.47,398.34 397.4,410.09 " fill="none" id="CrashDataExport-backto-EnvironmentDump" style="stroke:#181818;stroke-width:1.0;stroke-dasharray:7.0,7.0;"/><polygon fill="none" points="354.78,371.51,347.21,351.72,365.47,362.47,354.78,371.51" style="stroke:#181818;stroke-width:1.0;"/></g><!--SRC=[bPDHRu8m4CVV-ocQ-89H_024aPYXcrcoB8lRY_7XBETiBArfYuuul_iAWa5mMUIXXDw___lTNU7Iebu3Gpfxr60sCLYOVE-KjlH8g7lYBDrvYLkcN63GKCNLNZ-WUyMJYtXiSid-Ep47ioKdGc1bh0PcAHDW36qXXFEeekYr8fvMXw1CzwuE_LBY- -NhM5kUQ6yEAu6la3eAjyVbLqVXJdVYDuoUq3gbyHpvR2Ap57NXxF0woezT0XQTsECMKrVea7PHUpFp2O8dXTzAAK4VgDKPdcCkrvIZIBnriOuPGsC2Eiqa2y-GKVyATt3NX0PtZ-WycOg_SIcA6ZS82UeQPx6yceJTSBFOObw7bxUwxAfzBatQlQrghKL5ja8HSsQvag3pIZ6aJUMZG2Yjoe8lz6DZC5s9lE0Ewu-e2axadcibKvIsZBzWxgQJuHjmtKuI4TBvJyAVKJ9gNrtILYbV-tNVo6sB9kKVaXRhBm00]--></g></svg>