<?xml version="1.0" encoding="us-ascii" standalone="no"?><svg xmlns="http://www.w3.org/2000/svg" xmlns:xlink="http://www.w3.org/1999/xlink" contentStyleType="text/css" height="1176px" preserveAspectRatio="none" style="width:855px;height:1176px;background:#FFFFFF;" version="1.1" viewBox="0 0 855 1176" width="855px" zoomAndPan="magnify"><defs/><g><!--class CrashData--><g id="elem_CrashData"><rect codeLine="1" fill="#F1F1F1" height="251.5625" id="CrashData" rx="2.5" ry="2.5" style="stroke:#181818;stroke-width:0.5;" width="340" x="101.5" y="119"/><ellipse cx="231.25" cy="135" fill="#ADD1B2" rx="11" ry="11" style="stroke:#181818;stroke-width:1.0;"/><path d="M234.2188,140.6406 Q233.6406,140.9375 233,141.0781 Q232.3594,141.2344 231.6563,141.2344 Q229.1563,141.2344 227.8281,139.5938 Q226.5156,137.9375 226.5156,134.8125 Q226.5156,131.6875 227.8281,130.0313 Q229.1563,128.375 231.6563,128.375 Q232.3594,128.375 233,128.5313 Q233.6563,128.6875 234.2188,128.9844 L234.2188,131.7031 Q233.5938,131.125 233,130.8594 Q232.4063,130.5781 231.7813,130.5781 Q230.4375,130.5781 229.75,131.6563 Q229.0625,132.7188 229.0625,134.8125 Q229.0625,136.9063 229.75,137.9844 Q230.4375,139.0469 231.7813,139.0469 Q232.4063,139.0469 233,138.7813 Q233.5938,138.5 234.2188,137.9219 L234.2188,140.6406 Z " fill="#000000"/><text fill="#000000" font-family="sans-serif" font-size="14" lengthAdjust="spacing" textLength="72" x="251.75" y="139.8467">CrashData</text><line style="stroke:#181818;stroke-width:0.5;" x1="102.5" x2="440.5" y1="151" y2="151"/><text fill="#000000" font-family="sans-serif" font-size="14" lengthAdjust="spacing" text-decoration="underline" textLength="140" x="107.5" y="167.9951">Instance: CrashData</text><text fill="#000000" font-family="sans-serif" font-size="14" lengthAdjust="spacing" textLength="276" x="107.5" y="184.292">CrashDumpFactory: ICrashDumpFactory</text><text fill="#000000" font-family="sans-serif" font-size="14" lengthAdjust="spacing" textLength="242" x="107.5" y="200.5889">Providers: IList&lt;ICrashDataExport&gt;</text><line style="stroke:#181818;stroke-width:1.0;" x1="102.5" x2="440.5" y1="207.8906" y2="207.8906"/><text fill="#000000" font-family="sans-serif" font-size="14" lengthAdjust="spacing" text-decoration="underline" textLength="227" x="107.5" y="224.8857">GetCrashDir(prefix: string): string</text><text fill="#000000" font-family="sans-serif" font-size="14" lengthAdjust="spacing" textLength="100" x="107.5" y="261.4795">Dump(): string</text><text fill="#000000" font-family="sans-serif" font-size="14" lengthAdjust="spacing" textLength="179" x="107.5" y="277.7764">Dump(path: string): string</text><text fill="#000000" font-family="sans-serif" font-size="14" lengthAdjust="spacing" textLength="282" x="107.5" y="294.0732">Dump(stream: Stream, path: string): void</text><line style="stroke:#181818;stroke-width:1.0;stroke-dasharray:1.0,2.0;" x1="102.5" x2="217" y1="240.3359" y2="240.3359"/><text fill="#000000" font-family="sans-serif" font-size="14" lengthAdjust="spacing" textLength="109" x="217" y="244.6826">&#171;Synchronous&#187;</text><line style="stroke:#181818;stroke-width:1.0;stroke-dasharray:1.0,2.0;" x1="326" x2="440.5" y1="240.3359" y2="240.3359"/><text fill="#000000" font-family="sans-serif" font-size="14" lengthAdjust="spacing" textLength="198" x="107.5" y="330.667">DumpAsync(): Task&lt;string&gt;</text><text fill="#000000" font-family="sans-serif" font-size="14" lengthAdjust="spacing" textLength="277" x="107.5" y="346.9639">DumpAsync(path: string): Task&lt;string&gt;</text><text fill="#000000" font-family="sans-serif" font-size="14" lengthAdjust="spacing" textLength="328" x="107.5" y="363.2607">DumpAsync(stream: Stream, path: string): Task</text><line style="stroke:#181818;stroke-width:1.0;stroke-dasharray:1.0,2.0;" x1="102.5" x2="213" y1="309.5234" y2="309.5234"/><text fill="#000000" font-family="sans-serif" font-size="14" lengthAdjust="spacing" textLength="117" x="213" y="313.8701">&#171;Asynchronous&#187;</text><line style="stroke:#181818;stroke-width:1.0;stroke-dasharray:1.0,2.0;" x1="330" x2="440.5" y1="309.5234" y2="309.5234"/></g><!--class Collection_ICrashDataExport--><g id="elem_Collection_ICrashDataExport"><rect codeLine="17" fill="#F1F1F1" height="48" id="Collection_ICrashDataExport" rx="2.5" ry="2.5" style="stroke:#181818;stroke-width:0.5;" width="213" x="556" y="10"/><ellipse cx="571" cy="26" fill="#ADD1B2" rx="11" ry="11" style="stroke:#181818;stroke-width:1.0;"/><path d="M573.9688,31.6406 Q573.3906,31.9375 572.75,32.0781 Q572.1094,32.2344 571.4063,32.2344 Q568.9063,32.2344 567.5781,30.5938 Q566.2656,28.9375 566.2656,25.8125 Q566.2656,22.6875 567.5781,21.0313 Q568.9063,19.375 571.4063,19.375 Q572.1094,19.375 572.75,19.5313 Q573.4063,19.6875 573.9688,19.9844 L573.9688,22.7031 Q573.3438,22.125 572.75,21.8594 Q572.1563,21.5781 571.5313,21.5781 Q570.1875,21.5781 569.5,22.6563 Q568.8125,23.7188 568.8125,25.8125 Q568.8125,27.9063 569.5,28.9844 Q570.1875,30.0469 571.5313,30.0469 Q572.1563,30.0469 572.75,29.7813 Q573.3438,29.5 573.9688,28.9219 L573.9688,31.6406 Z " fill="#000000"/><text fill="#000000" font-family="sans-serif" font-size="14" lengthAdjust="spacing" textLength="68" x="585" y="30.8467">Collection</text><rect fill="#FFFFFF" height="15.9688" style="stroke:#181818;stroke-width:1.0;stroke-dasharray:2.0,2.0;" width="111" x="661" y="7"/><text fill="#000000" font-family="sans-serif" font-size="12" font-style="italic" lengthAdjust="spacing" textLength="109" x="662" y="19.1387">ICrashDataExport</text><line style="stroke:#181818;stroke-width:0.5;" x1="557" x2="768" y1="42" y2="42"/><line style="stroke:#181818;stroke-width:0.5;" x1="557" x2="768" y1="50" y2="50"/></g><!--class CrashDataProviders--><g id="elem_CrashDataProviders"><rect codeLine="19" fill="#F1F1F1" height="105.1563" id="CrashDataProviders" rx="2.5" ry="2.5" style="stroke:#181818;stroke-width:0.5;" width="371" x="477" y="192.2"/><ellipse cx="590.25" cy="212.3328" fill="#ADD1B2" rx="11" ry="11" style="stroke:#181818;stroke-width:1.0;"/><path d="M593.2188,217.9734 Q592.6406,218.2703 592,218.4109 Q591.3594,218.5672 590.6563,218.5672 Q588.1563,218.5672 586.8281,216.9266 Q585.5156,215.2703 585.5156,212.1453 Q585.5156,209.0203 586.8281,207.3641 Q588.1563,205.7078 590.6563,205.7078 Q591.3594,205.7078 592,205.8641 Q592.6563,206.0203 593.2188,206.3172 L593.2188,209.0359 Q592.5938,208.4578 592,208.1922 Q591.4063,207.9109 590.7813,207.9109 Q589.4375,207.9109 588.75,208.9891 Q588.0625,210.0516 588.0625,212.1453 Q588.0625,214.2391 588.75,215.3172 Q589.4375,216.3797 590.7813,216.3797 Q591.4063,216.3797 592,216.1141 Q592.5938,215.8328 593.2188,215.2547 L593.2188,217.9734 Z " fill="#000000"/><text fill="#000000" font-family="sans-serif" font-size="12" font-style="italic" lengthAdjust="spacing" textLength="62" x="647.75" y="208.3387">&#171;internal&#187;</text><text fill="#000000" font-family="sans-serif" font-size="14" lengthAdjust="spacing" textLength="136" x="610.75" y="224.1639">CrashDataProviders</text><line style="stroke:#181818;stroke-width:0.5;" x1="478" x2="847" y1="232.4656" y2="232.4656"/><line style="stroke:#181818;stroke-width:0.5;" x1="478" x2="847" y1="240.4656" y2="240.4656"/><polygon fill="#FFFF44" points="488,249.1141,492,253.1141,488,257.1141,484,253.1141" style="stroke:#B38D22;stroke-width:1.0;"/><text fill="#000000" font-family="sans-serif" font-size="14" lengthAdjust="spacing" textLength="345" x="497" y="257.4607">InsertItem(index: int, item: ICrashDataExport): void</text><polygon fill="#FFFF44" points="488,265.4109,492,269.4109,488,273.4109,484,269.4109" style="stroke:#B38D22;stroke-width:1.0;"/><text fill="#000000" font-family="sans-serif" font-size="14" lengthAdjust="spacing" textLength="329" x="497" y="273.7576">SetItem(index: int, item: ICrashDataExport): void</text><polygon fill="#FFFF44" points="488,281.7078,492,285.7078,488,289.7078,484,285.7078" style="stroke:#B38D22;stroke-width:1.0;"/><text fill="#000000" font-family="sans-serif" font-size="14" lengthAdjust="spacing" textLength="197" x="497" y="290.0545">RemoveItem(index: int): void</text></g><!--class ICrashDumpFactory--><g id="elem_ICrashDumpFactory"><rect codeLine="33" fill="#F1F1F1" height="170.0781" id="ICrashDumpFactory" rx="2.5" ry="2.5" style="stroke:#181818;stroke-width:0.5;" width="508" x="17.5" y="431.56"/><ellipse cx="199.75" cy="447.56" fill="#B4A7E5" rx="11" ry="11" style="stroke:#181818;stroke-width:1.0;"/><path d="M195.6719,443.3256 L195.6719,441.1694 L203.0625,441.1694 L203.0625,443.3256 L200.5938,443.3256 L200.5938,451.4037 L203.0625,451.4037 L203.0625,453.56 L195.6719,453.56 L195.6719,451.4037 L198.1406,451.4037 L198.1406,443.3256 L195.6719,443.3256 Z " fill="#000000"/><text fill="#000000" font-family="sans-serif" font-size="14" font-style="italic" lengthAdjust="spacing" textLength="135" x="220.25" y="452.4067">ICrashDumpFactory</text><line style="stroke:#181818;stroke-width:0.5;" x1="18.5" x2="524.5" y1="463.56" y2="463.56"/><text fill="#000000" font-family="sans-serif" font-size="14" lengthAdjust="spacing" textLength="111" x="23.5" y="480.5551">FileName: string</text><line style="stroke:#181818;stroke-width:1.0;" x1="18.5" x2="524.5" y1="487.8569" y2="487.8569"/><text fill="#000000" font-family="sans-serif" font-size="14" lengthAdjust="spacing" textLength="312" x="23.5" y="525.1489">Create(fileName: string): ICrashDataDumpFile</text><text fill="#000000" font-family="sans-serif" font-size="14" lengthAdjust="spacing" textLength="398" x="23.5" y="541.4457">Create(stream: Stream, path: string): ICrashDataDumpFile</text><line style="stroke:#181818;stroke-width:1.0;stroke-dasharray:1.0,2.0;" x1="18.5" x2="217" y1="504.0053" y2="504.0053"/><text fill="#000000" font-family="sans-serif" font-size="14" lengthAdjust="spacing" textLength="109" x="217" y="508.352">&#171;Synchronous&#187;</text><line style="stroke:#181818;stroke-width:1.0;stroke-dasharray:1.0,2.0;" x1="326" x2="524.5" y1="504.0053" y2="504.0053"/><text fill="#000000" font-family="sans-serif" font-size="14" lengthAdjust="spacing" textLength="410" x="23.5" y="578.0395">CreateAsync(fileName: string): Task&lt;ICrashDataDumpFile&gt;</text><text fill="#000000" font-family="sans-serif" font-size="14" lengthAdjust="spacing" textLength="496" x="23.5" y="594.3364">CreateAsync(stream: Stream, path: string): Task&lt;ICrashDataDumpFile&gt;</text><line style="stroke:#181818;stroke-width:1.0;stroke-dasharray:1.0,2.0;" x1="18.5" x2="217" y1="556.8959" y2="556.8959"/><text fill="#000000" font-family="sans-serif" font-size="14" lengthAdjust="spacing" textLength="109" x="217" y="561.2426">&#171;Aynchronous&#187;</text><line style="stroke:#181818;stroke-width:1.0;stroke-dasharray:1.0,2.0;" x1="326" x2="524.5" y1="556.8959" y2="556.8959"/></g><!--class XmlCrashDumpFactory--><g id="elem_XmlCrashDumpFactory"><rect codeLine="44" fill="#F1F1F1" height="48" id="XmlCrashDumpFactory" rx="2.5" ry="2.5" style="stroke:#181818;stroke-width:0.5;" width="189" x="561" y="492.6"/><ellipse cx="576" cy="508.6" fill="#ADD1B2" rx="11" ry="11" style="stroke:#181818;stroke-width:1.0;"/><path d="M578.9688,514.2406 Q578.3906,514.5375 577.75,514.6781 Q577.1094,514.8344 576.4063,514.8344 Q573.9063,514.8344 572.5781,513.1938 Q571.2656,511.5375 571.2656,508.4125 Q571.2656,505.2875 572.5781,503.6313 Q573.9063,501.975 576.4063,501.975 Q577.1094,501.975 577.75,502.1313 Q578.4063,502.2875 578.9688,502.5844 L578.9688,505.3031 Q578.3438,504.725 577.75,504.4594 Q577.1563,504.1781 576.5313,504.1781 Q575.1875,504.1781 574.5,505.2563 Q573.8125,506.3188 573.8125,508.4125 Q573.8125,510.5063 574.5,511.5844 Q575.1875,512.6469 576.5313,512.6469 Q577.1563,512.6469 577.75,512.3813 Q578.3438,512.1 578.9688,511.5219 L578.9688,514.2406 Z " fill="#000000"/><text fill="#000000" font-family="sans-serif" font-size="14" lengthAdjust="spacing" textLength="157" x="590" y="513.4467">XmlCrashDumpFactory</text><line style="stroke:#181818;stroke-width:0.5;" x1="562" x2="749" y1="524.6" y2="524.6"/><line style="stroke:#181818;stroke-width:0.5;" x1="562" x2="749" y1="532.6" y2="532.6"/></g><!--class ICrashDataDumpFile--><g id="elem_ICrashDataDumpFile"><rect codeLine="48" fill="#F1F1F1" height="170.0781" id="ICrashDataDumpFile" rx="2.5" ry="2.5" style="stroke:#181818;stroke-width:0.5;" width="535" x="7" y="678.64"/><ellipse cx="200.25" cy="694.64" fill="#B4A7E5" rx="11" ry="11" style="stroke:#181818;stroke-width:1.0;"/><path d="M196.1719,690.4056 L196.1719,688.2494 L203.5625,688.2494 L203.5625,690.4056 L201.0938,690.4056 L201.0938,698.4838 L203.5625,698.4838 L203.5625,700.64 L196.1719,700.64 L196.1719,698.4838 L198.6406,698.4838 L198.6406,690.4056 L196.1719,690.4056 Z " fill="#000000"/><text fill="#000000" font-family="sans-serif" font-size="14" font-style="italic" lengthAdjust="spacing" textLength="140" x="220.75" y="699.4867">ICrashDataDumpFile</text><line style="stroke:#181818;stroke-width:0.5;" x1="8" x2="541" y1="710.64" y2="710.64"/><text fill="#000000" font-family="sans-serif" font-size="14" lengthAdjust="spacing" textLength="79" x="13" y="727.6351">Path: string</text><line style="stroke:#181818;stroke-width:1.0;" x1="8" x2="541" y1="734.9369" y2="734.9369"/><text fill="#000000" font-family="sans-serif" font-size="14" lengthAdjust="spacing" textLength="425" x="13" y="772.2289">DumpTable(tableName: string, rowName: string): IDumpTable</text><text fill="#000000" font-family="sans-serif" font-size="14" lengthAdjust="spacing" textLength="84" x="13" y="788.5257">Flush(): void</text><line style="stroke:#181818;stroke-width:1.0;stroke-dasharray:1.0,2.0;" x1="8" x2="220" y1="751.0853" y2="751.0853"/><text fill="#000000" font-family="sans-serif" font-size="14" lengthAdjust="spacing" textLength="109" x="220" y="755.432">&#171;Synchronous&#187;</text><line style="stroke:#181818;stroke-width:1.0;stroke-dasharray:1.0,2.0;" x1="329" x2="541" y1="751.0853" y2="751.0853"/><text fill="#000000" font-family="sans-serif" font-size="14" lengthAdjust="spacing" textLength="523" x="13" y="825.1195">DumpTableAsync(tableName: string, rowName: string): Task&lt;IDumpTable&gt;</text><text fill="#000000" font-family="sans-serif" font-size="14" lengthAdjust="spacing" textLength="130" x="13" y="841.4164">FlushAsync(): Task</text><line style="stroke:#181818;stroke-width:1.0;stroke-dasharray:1.0,2.0;" x1="8" x2="216" y1="803.9759" y2="803.9759"/><text fill="#000000" font-family="sans-serif" font-size="14" lengthAdjust="spacing" textLength="117" x="216" y="808.3226">&#171;Asynchronous&#187;</text><line style="stroke:#181818;stroke-width:1.0;stroke-dasharray:1.0,2.0;" x1="333" x2="541" y1="803.9759" y2="803.9759"/></g><!--class XmlCrashDumper--><g id="elem_XmlCrashDumper"><rect codeLine="59" fill="#F1F1F1" height="48" id="XmlCrashDumper" rx="2.5" ry="2.5" style="stroke:#181818;stroke-width:0.5;" width="153" x="577" y="739.68"/><ellipse cx="592" cy="755.68" fill="#ADD1B2" rx="11" ry="11" style="stroke:#181818;stroke-width:1.0;"/><path d="M594.9688,761.3206 Q594.3906,761.6175 593.75,761.7581 Q593.1094,761.9144 592.4063,761.9144 Q589.9063,761.9144 588.5781,760.2738 Q587.2656,758.6175 587.2656,755.4925 Q587.2656,752.3675 588.5781,750.7113 Q589.9063,749.055 592.4063,749.055 Q593.1094,749.055 593.75,749.2113 Q594.4063,749.3675 594.9688,749.6644 L594.9688,752.3831 Q594.3438,751.805 593.75,751.5394 Q593.1563,751.2581 592.5313,751.2581 Q591.1875,751.2581 590.5,752.3363 Q589.8125,753.3988 589.8125,755.4925 Q589.8125,757.5863 590.5,758.6644 Q591.1875,759.7269 592.5313,759.7269 Q593.1563,759.7269 593.75,759.4613 Q594.3438,759.18 594.9688,758.6019 L594.9688,761.3206 Z " fill="#000000"/><text fill="#000000" font-family="sans-serif" font-size="14" lengthAdjust="spacing" textLength="121" x="606" y="760.5267">XmlCrashDumper</text><line style="stroke:#181818;stroke-width:0.5;" x1="578" x2="729" y1="771.68" y2="771.68"/><line style="stroke:#181818;stroke-width:0.5;" x1="578" x2="729" y1="779.68" y2="779.68"/></g><!--class IDumpTable--><g id="elem_IDumpTable"><rect codeLine="64" fill="#F1F1F1" height="243.5625" id="IDumpTable" rx="2.5" ry="2.5" style="stroke:#181818;stroke-width:0.5;" width="404" x="126.5" y="925.72"/><ellipse cx="282.75" cy="941.72" fill="#B4A7E5" rx="11" ry="11" style="stroke:#181818;stroke-width:1.0;"/><path d="M278.6719,937.4856 L278.6719,935.3294 L286.0625,935.3294 L286.0625,937.4856 L283.5938,937.4856 L283.5938,945.5638 L286.0625,945.5638 L286.0625,947.72 L278.6719,947.72 L278.6719,945.5638 L281.1406,945.5638 L281.1406,937.4856 L278.6719,937.4856 Z " fill="#000000"/><text fill="#000000" font-family="sans-serif" font-size="14" font-style="italic" lengthAdjust="spacing" textLength="83" x="303.25" y="946.5667">IDumpTable</text><line style="stroke:#181818;stroke-width:0.5;" x1="127.5" x2="529.5" y1="957.72" y2="957.72"/><text fill="#000000" font-family="sans-serif" font-size="14" lengthAdjust="spacing" textLength="245" x="132.5" y="995.012">DumpHeader(row: DumpRow): void</text><text fill="#000000" font-family="sans-serif" font-size="14" lengthAdjust="spacing" textLength="346" x="132.5" y="1011.3089">DumpHeader(header: IEnumerable&lt;string&gt;): void</text><text fill="#000000" font-family="sans-serif" font-size="14" lengthAdjust="spacing" textLength="225" x="132.5" y="1027.6057">DumpRow(row: DumpRow): void</text><text fill="#000000" font-family="sans-serif" font-size="14" lengthAdjust="spacing" textLength="329" x="132.5" y="1043.9026">DumpRow(IDictionary&lt;string, string&gt; row): void</text><text fill="#000000" font-family="sans-serif" font-size="14" lengthAdjust="spacing" textLength="84" x="132.5" y="1060.1995">Flush(): void</text><line style="stroke:#181818;stroke-width:1.0;stroke-dasharray:1.0,2.0;" x1="127.5" x2="274" y1="973.8684" y2="973.8684"/><text fill="#000000" font-family="sans-serif" font-size="14" lengthAdjust="spacing" textLength="109" x="274" y="978.2151">&#171;Synchronous&#187;</text><line style="stroke:#181818;stroke-width:1.0;stroke-dasharray:1.0,2.0;" x1="383" x2="529.5" y1="973.8684" y2="973.8684"/><text fill="#000000" font-family="sans-serif" font-size="14" lengthAdjust="spacing" textLength="291" x="132.5" y="1096.7932">DumpHeaderAsync(row: DumpRow): Task</text><text fill="#000000" font-family="sans-serif" font-size="14" lengthAdjust="spacing" textLength="392" x="132.5" y="1113.0901">DumpHeaderAsync(header: IEnumerable&lt;string&gt;): Task</text><text fill="#000000" font-family="sans-serif" font-size="14" lengthAdjust="spacing" textLength="271" x="132.5" y="1129.387">DumpRowAsync(row: DumpRow): Task</text><text fill="#000000" font-family="sans-serif" font-size="14" lengthAdjust="spacing" textLength="375" x="132.5" y="1145.6839">DumpRowAsync(IDictionary&lt;string, string&gt; row): Task</text><text fill="#000000" font-family="sans-serif" font-size="14" lengthAdjust="spacing" textLength="130" x="132.5" y="1161.9807">FlushAsync(): Task</text><line style="stroke:#181818;stroke-width:1.0;stroke-dasharray:1.0,2.0;" x1="127.5" x2="270" y1="1075.6497" y2="1075.6497"/><text fill="#000000" font-family="sans-serif" font-size="14" lengthAdjust="spacing" textLength="117" x="270" y="1079.9964">&#171;Asynchronous&#187;</text><line style="stroke:#181818;stroke-width:1.0;stroke-dasharray:1.0,2.0;" x1="387" x2="529.5" y1="1075.6497" y2="1075.6497"/></g><!--class XmlDumpTable--><g id="elem_XmlDumpTable"><rect codeLine="79" fill="#F1F1F1" height="48" id="XmlDumpTable" rx="2.5" ry="2.5" style="stroke:#181818;stroke-width:0.5;" width="137" x="575" y="1023.5"/><ellipse cx="590" cy="1039.5" fill="#ADD1B2" rx="11" ry="11" style="stroke:#181818;stroke-width:1.0;"/><path d="M592.9688,1045.1406 Q592.3906,1045.4375 591.75,1045.5781 Q591.1094,1045.7344 590.4063,1045.7344 Q587.9063,1045.7344 586.5781,1044.0938 Q585.2656,1042.4375 585.2656,1039.3125 Q585.2656,1036.1875 586.5781,1034.5313 Q587.9063,1032.875 590.4063,1032.875 Q591.1094,1032.875 591.75,1033.0313 Q592.4063,1033.1875 592.9688,1033.4844 L592.9688,1036.2031 Q592.3438,1035.625 591.75,1035.3594 Q591.1563,1035.0781 590.5313,1035.0781 Q589.1875,1035.0781 588.5,1036.1563 Q587.8125,1037.2188 587.8125,1039.3125 Q587.8125,1041.4063 588.5,1042.4844 Q589.1875,1043.5469 590.5313,1043.5469 Q591.1563,1043.5469 591.75,1043.2813 Q592.3438,1043 592.9688,1042.4219 L592.9688,1045.1406 Z " fill="#000000"/><text fill="#000000" font-family="sans-serif" font-size="14" lengthAdjust="spacing" textLength="105" x="604" y="1044.3467">XmlDumpTable</text><line style="stroke:#181818;stroke-width:0.5;" x1="576" x2="711" y1="1055.5" y2="1055.5"/><line style="stroke:#181818;stroke-width:0.5;" x1="576" x2="711" y1="1063.5" y2="1063.5"/></g><!--reverse link Collection_ICrashDataExport to CrashDataProviders--><g id="link_Collection_ICrashDataExport_CrashDataProviders"><path codeLine="25" d="M662.5,78.72 C662.5,111.7 662.5,157.07 662.5,191.89 " fill="none" id="Collection_ICrashDataExport-backto-CrashDataProviders" style="stroke:#181818;stroke-width:1.0;"/><polygon fill="none" points="655.5,79.14,662.5,59.14,669.5,79.14,655.5,79.14" style="stroke:#181818;stroke-width:1.0;"/></g><!--reverse link CrashData to CrashDataProviders--><g id="link_CrashData_CrashDataProviders"><path codeLine="27" d="M455.71,244.78 C462.71,244.78 469.71,244.78 476.71,244.78 " fill="none" id="CrashData-backto-CrashDataProviders" style="stroke:#181818;stroke-width:1.0;"/><polygon fill="#181818" points="442.8,244.78,448.8,248.78,454.8,244.78,448.8,240.78,442.8,244.78" style="stroke:#181818;stroke-width:1.0;"/></g><!--reverse link ICrashDumpFactory to XmlCrashDumpFactory--><g id="link_ICrashDumpFactory_XmlCrashDumpFactory"><path codeLine="46" d="M546.51,516.6 C551.25,516.6 555.99,516.6 560.72,516.6 " fill="none" id="ICrashDumpFactory-backto-XmlCrashDumpFactory" style="stroke:#181818;stroke-width:1.0;stroke-dasharray:7.0,7.0;"/><polygon fill="none" points="546.75,523.6,526.75,516.6,546.75,509.6,546.75,523.6" style="stroke:#181818;stroke-width:1.0;"/></g><!--reverse link ICrashDataDumpFile to XmlCrashDumper--><g id="link_ICrashDataDumpFile_XmlCrashDumper"><path codeLine="61" d="M563.34,763.68 C567.81,763.68 572.27,763.68 576.73,763.68 " fill="none" id="ICrashDataDumpFile-backto-XmlCrashDumper" style="stroke:#181818;stroke-width:1.0;stroke-dasharray:7.0,7.0;"/><polygon fill="none" points="563.46,770.68,543.46,763.68,563.46,756.68,563.46,770.68" style="stroke:#181818;stroke-width:1.0;"/></g><!--link XmlCrashDumpFactory to XmlCrashDumper--><g id="link_XmlCrashDumpFactory_XmlCrashDumper"><path codeLine="62" d="M655.31,541.1 C654.94,586.11 654.14,684.39 653.74,733.51 " fill="none" id="XmlCrashDumpFactory-to-XmlCrashDumper" style="stroke:#181818;stroke-width:1.0;"/><polygon fill="#181818" points="653.69,738.25,657.7414,729.273,653.7186,733.2501,649.7415,729.2273,653.69,738.25" style="stroke:#181818;stroke-width:1.0;"/><text fill="#000000" font-family="sans-serif" font-size="13" lengthAdjust="spacing" textLength="64" x="655.5" y="644.7069">&#171;creates&#187;</text></g><!--reverse link IDumpTable to XmlDumpTable--><g id="link_IDumpTable_XmlDumpTable"><path codeLine="81" d="M551.87,1047.5 C559.54,1047.5 567.22,1047.5 574.89,1047.5 " fill="none" id="IDumpTable-backto-XmlDumpTable" style="stroke:#181818;stroke-width:1.0;stroke-dasharray:7.0,7.0;"/><polygon fill="none" points="551.91,1054.5,531.91,1047.5,551.91,1040.5,551.91,1054.5" style="stroke:#181818;stroke-width:1.0;"/></g><!--link XmlCrashDumper to XmlDumpTable--><g id="link_XmlCrashDumper_XmlDumpTable"><path codeLine="82" d="M652.68,787.74 C650.87,838.73 646.54,960.96 644.54,1017.24 " fill="none" id="XmlCrashDumper-to-XmlDumpTable" style="stroke:#181818;stroke-width:1.0;"/><polygon fill="#181818" points="644.33,1022.12,648.636,1013.2623,644.5013,1017.1229,640.6407,1012.9882,644.33,1022.12" style="stroke:#181818;stroke-width:1.0;"/><text fill="#000000" font-family="sans-serif" font-size="13" lengthAdjust="spacing" textLength="64" x="649.5" y="891.7869">&#171;creates&#187;</text></g><!--link CrashData to ICrashDumpFactory--><g id="link_CrashData_ICrashDumpFactory"><path codeLine="84" d="M271.5,370.82 C271.5,389.27 271.5,407.97 271.5,425.53 " fill="none" id="CrashData-to-ICrashDumpFactory" style="stroke:#181818;stroke-width:1.0;"/><polygon fill="#181818" points="271.5,430.44,275.5,421.44,271.5,425.44,267.5,421.44,271.5,430.44" style="stroke:#181818;stroke-width:1.0;"/></g><!--link ICrashDumpFactory to ICrashDataDumpFile--><g id="link_ICrashDumpFactory_ICrashDataDumpFile"><path codeLine="85" d="M272.53,601.94 C272.81,624.66 273.11,649.33 273.39,672.36 " fill="none" id="ICrashDumpFactory-to-ICrashDataDumpFile" style="stroke:#181818;stroke-width:1.0;"/><polygon fill="#181818" points="273.47,677.18,277.3669,668.1349,273.4129,672.1803,269.3674,668.2263,273.47,677.18" style="stroke:#181818;stroke-width:1.0;"/></g><!--link ICrashDataDumpFile to IDumpTable--><g id="link_ICrashDataDumpFile_IDumpTable"><path codeLine="86" d="M290.63,848.85 C294.89,871.08 299.58,895.56 304.17,919.5 " fill="none" id="ICrashDataDumpFile-to-IDumpTable" style="stroke:#181818;stroke-width:1.0;"/><polygon fill="#181818" points="305.27,924.25,307.4974,914.6563,304.3252,919.3401,299.6415,916.1679,305.27,924.25" style="stroke:#181818;stroke-width:1.0;"/></g><!--SRC=[dLPTRvim57tFhx3QXz0foGz026bAsmrfcggc3tkRFBWfri16jaaRjVtlkzZ1W24VNHwIO9zpFyuzTf8ML2cobbJbjrHJyZOZ-7fJccgMVf24upUUGjX13C0-rMLrJrCjv3uaYRzaS0zIx5W6KY7W1rCwIboSkzTAI1qRs78vJFiDjCKn6LGIjkmr94fBnfzlsY-6i5gHADhiUPfBmKMjuXYNp4vJI304cwMAwdmwbjd6Pw1bI3RcSq4y-4wmh4lyLHtBR7QQz4zK_OqiFVPslT0da6UAQfYpZzaiDQEyMekYW5GpmSTYNn6AmtQ0tpwW3UAMtVomNSOrI4uBRDMwv1hT0L8d6ig0yGnmI8XP48OBpX0kTb- -wmty5-qHIh43ZzaYK88JhP7eVPaj9pf3bdF_bwMSXCm95ng8PC-vnkRdJJ4aKKJdGEOEDYUL51KgibyGuAesrh9OBaXMLmLBAOR9SBADf5G2Ca01rol4OVr6uYrDONoS3fhVim9-qX86rZqSd-EdOOt6qH1iFV9DNswJ2m5zmXdd7I7Rmt6y3klgYMBC6HW7ZKVS2qx4P1ntIdwLnUY-ceqrZzvNSZKD7esgb-WmguTULPVDgGdmHFyK4EZclI_FWaZnuW_FuQqtYbhbmIUkAKErYbwKp-hgc76NTN3XJSiCqYdSbseiCG8d52TuUcCFHq9iBpM-mCu6Ct557cPnMlFlGF401zXnQ9uVnKjVnXuaDnye_HslIv1DXlRMzXaOv6J4PZ-vPUQwed8VjReVmZNwzocVdgwjs4x6gyDCQGftkhq13IETZ-r0vnjrl3E6wZm_wqtPsQZRzhpI-gVZUExfVWOCTFo79fdsvCGjEE5p2tN9_m40]--></g></svg>