<?xml version="1.0" encoding="us-ascii" standalone="no"?><svg xmlns="http://www.w3.org/2000/svg" xmlns:xlink="http://www.w3.org/1999/xlink" contentStyleType="text/css" height="866px" preserveAspectRatio="none" style="width:901px;height:866px;background:#FFFFFF;" version="1.1" viewBox="0 0 901 866" width="901px" zoomAndPan="magnify"><defs/><g><rect fill="#FFFFFF" height="640.5234" style="stroke:#181818;stroke-width:1.0;" width="10" x="144" y="127.5625"/><rect fill="#FFFFFF" height="72.2656" style="stroke:#181818;stroke-width:1.0;" width="10" x="315" y="213.9609"/><rect fill="#FFFFFF" height="495.8594" style="stroke:#181818;stroke-width:1.0;" width="10" x="476.5" y="243.0938"/><rect fill="#FFFFFF" height="320.1953" style="stroke:#181818;stroke-width:1.0;" width="10" x="648.5" y="339.4922"/><rect fill="#FFFFFF" height="232.7969" style="stroke:#181818;stroke-width:1.0;" width="10" x="821.5" y="412.8906"/><rect fill="none" height="366.4609" style="stroke:#000000;stroke-width:1.5;" width="799" x="96" y="301.2266"/><rect fill="none" height="60.2656" style="stroke:#000000;stroke-width:1.5;" width="308" x="577" y="514.1563"/><line style="stroke:#181818;stroke-width:0.5;stroke-dasharray:5.0,5.0;" x1="24" x2="24" y1="81.2969" y2="786.0859"/><line style="stroke:#181818;stroke-width:0.5;stroke-dasharray:5.0,5.0;" x1="149" x2="149" y1="81.2969" y2="786.0859"/><line style="stroke:#181818;stroke-width:0.5;stroke-dasharray:5.0,5.0;" x1="319.5" x2="319.5" y1="81.2969" y2="786.0859"/><line style="stroke:#181818;stroke-width:0.5;stroke-dasharray:5.0,5.0;" x1="481.5" x2="481.5" y1="81.2969" y2="786.0859"/><line style="stroke:#181818;stroke-width:0.5;stroke-dasharray:5.0,5.0;" x1="653" x2="653" y1="81.2969" y2="786.0859"/><line style="stroke:#181818;stroke-width:0.5;stroke-dasharray:5.0,5.0;" x1="826" x2="826" y1="81.2969" y2="786.0859"/><text fill="#000000" font-family="sans-serif" font-size="14" lengthAdjust="spacing" textLength="32" x="5" y="77.9951">User</text><ellipse cx="24" cy="13.5" fill="#E2E2F0" rx="8" ry="8" style="stroke:#181818;stroke-width:0.5;"/><path d="M24,21.5 L24,48.5 M11,29.5 L37,29.5 M24,48.5 L11,63.5 M24,48.5 L37,63.5 " fill="none" style="stroke:#181818;stroke-width:0.5;"/><text fill="#000000" font-family="sans-serif" font-size="14" lengthAdjust="spacing" textLength="32" x="5" y="798.0811">User</text><ellipse cx="24" cy="809.8828" fill="#E2E2F0" rx="8" ry="8" style="stroke:#181818;stroke-width:0.5;"/><path d="M24,817.8828 L24,844.8828 M11,825.8828 L37,825.8828 M24,844.8828 L11,859.8828 M24,844.8828 L37,859.8828 " fill="none" style="stroke:#181818;stroke-width:0.5;"/><rect fill="#E2E2F0" height="30.2969" rx="2.5" ry="2.5" style="stroke:#181818;stroke-width:0.5;" width="86" x="106" y="50"/><text fill="#000000" font-family="sans-serif" font-size="14" lengthAdjust="spacing" textLength="72" x="113" y="69.9951">CrashData</text><rect fill="#E2E2F0" height="30.2969" rx="2.5" ry="2.5" style="stroke:#181818;stroke-width:0.5;" width="86" x="106" y="785.0859"/><text fill="#000000" font-family="sans-serif" font-size="14" lengthAdjust="spacing" textLength="72" x="113" y="805.0811">CrashData</text><rect fill="#E2E2F0" height="30.2969" rx="2.5" ry="2.5" style="stroke:#181818;stroke-width:0.5;" width="149" x="245.5" y="50"/><text fill="#000000" font-family="sans-serif" font-size="14" lengthAdjust="spacing" textLength="135" x="252.5" y="69.9951">ICrashDumpFactory</text><rect fill="#E2E2F0" height="30.2969" rx="2.5" ry="2.5" style="stroke:#181818;stroke-width:0.5;" width="149" x="245.5" y="785.0859"/><text fill="#000000" font-family="sans-serif" font-size="14" lengthAdjust="spacing" textLength="135" x="252.5" y="805.0811">ICrashDumpFactory</text><rect fill="#E2E2F0" height="30.2969" rx="2.5" ry="2.5" style="stroke:#181818;stroke-width:0.5;" width="154" x="404.5" y="50"/><text fill="#000000" font-family="sans-serif" font-size="14" lengthAdjust="spacing" textLength="140" x="411.5" y="69.9951">ICrashDataDumpFile</text><rect fill="#E2E2F0" height="30.2969" rx="2.5" ry="2.5" style="stroke:#181818;stroke-width:0.5;" width="154" x="404.5" y="785.0859"/><text fill="#000000" font-family="sans-serif" font-size="14" lengthAdjust="spacing" textLength="140" x="411.5" y="805.0811">ICrashDataDumpFile</text><rect fill="#E2E2F0" height="30.2969" rx="2.5" ry="2.5" style="stroke:#181818;stroke-width:0.5;" width="133" x="587" y="50"/><text fill="#000000" font-family="sans-serif" font-size="14" lengthAdjust="spacing" textLength="119" x="594" y="69.9951">ICrashDataExport</text><rect fill="#E2E2F0" height="30.2969" rx="2.5" ry="2.5" style="stroke:#181818;stroke-width:0.5;" width="133" x="587" y="785.0859"/><text fill="#000000" font-family="sans-serif" font-size="14" lengthAdjust="spacing" textLength="119" x="594" y="805.0811">ICrashDataExport</text><rect fill="#E2E2F0" height="30.2969" rx="2.5" ry="2.5" style="stroke:#181818;stroke-width:0.5;" width="97" x="778" y="50"/><text fill="#000000" font-family="sans-serif" font-size="14" lengthAdjust="spacing" textLength="83" x="785" y="69.9951">IDumpTable</text><rect fill="#E2E2F0" height="30.2969" rx="2.5" ry="2.5" style="stroke:#181818;stroke-width:0.5;" width="97" x="778" y="785.0859"/><text fill="#000000" font-family="sans-serif" font-size="14" lengthAdjust="spacing" textLength="83" x="785" y="805.0811">IDumpTable</text><rect fill="#FFFFFF" height="640.5234" style="stroke:#181818;stroke-width:1.0;" width="10" x="144" y="127.5625"/><rect fill="#FFFFFF" height="72.2656" style="stroke:#181818;stroke-width:1.0;" width="10" x="315" y="213.9609"/><rect fill="#FFFFFF" height="495.8594" style="stroke:#181818;stroke-width:1.0;" width="10" x="476.5" y="243.0938"/><rect fill="#FFFFFF" height="320.1953" style="stroke:#181818;stroke-width:1.0;" width="10" x="648.5" y="339.4922"/><rect fill="#FFFFFF" height="232.7969" style="stroke:#181818;stroke-width:1.0;" width="10" x="821.5" y="412.8906"/><polygon fill="#181818" points="132,123.5625,142,127.5625,132,131.5625,136,127.5625" style="stroke:#181818;stroke-width:1.0;"/><line style="stroke:#181818;stroke-width:1.0;" x1="24" x2="138" y1="127.5625" y2="127.5625"/><text fill="#000000" font-family="sans-serif" font-size="13" lengthAdjust="spacing" textLength="36" x="31" y="107.3638">string</text><text fill="#000000" font-family="sans-serif" font-size="13" lengthAdjust="spacing" textLength="97" x="35" y="122.4966">path = Dump()</text><line style="stroke:#181818;stroke-width:1.0;" x1="154" x2="196" y1="156.6953" y2="156.6953"/><line style="stroke:#181818;stroke-width:1.0;" x1="196" x2="196" y1="156.6953" y2="169.6953"/><line style="stroke:#181818;stroke-width:1.0;" x1="155" x2="196" y1="169.6953" y2="169.6953"/><polygon fill="#181818" points="165,165.6953,155,169.6953,165,173.6953,161,169.6953" style="stroke:#181818;stroke-width:1.0;"/><text fill="#000000" font-family="sans-serif" font-size="13" lengthAdjust="spacing" textLength="99" x="161" y="151.6294">GetCrashPath()</text><polygon fill="#181818" points="303,209.9609,313,213.9609,303,217.9609,307,213.9609" style="stroke:#181818;stroke-width:1.0;"/><line style="stroke:#181818;stroke-width:1.0;" x1="154" x2="309" y1="213.9609" y2="213.9609"/><text fill="#000000" font-family="sans-serif" font-size="13" lengthAdjust="spacing" textLength="131" x="161" y="193.7622">ICrashDataDumpFile</text><text fill="#000000" font-family="sans-serif" font-size="13" lengthAdjust="spacing" textLength="138" x="165" y="208.895">dump = Create(path)</text><polygon fill="#181818" points="464.5,239.0938,474.5,243.0938,464.5,247.0938,468.5,243.0938" style="stroke:#181818;stroke-width:1.0;"/><line style="stroke:#181818;stroke-width:1.0;" x1="325" x2="470.5" y1="243.0938" y2="243.0938"/><text fill="#000000" font-family="sans-serif" font-size="13" lengthAdjust="spacing" textLength="47" x="332" y="238.0278">new(...)</text><polygon fill="#181818" points="336,253.0938,326,257.0938,336,261.0938,332,257.0938" style="stroke:#181818;stroke-width:1.0;"/><line style="stroke:#181818;stroke-width:1.0;stroke-dasharray:2.0,2.0;" x1="330" x2="475.5" y1="257.0938" y2="257.0938"/><polygon fill="#181818" points="165,282.2266,155,286.2266,165,290.2266,161,286.2266" style="stroke:#181818;stroke-width:1.0;"/><line style="stroke:#181818;stroke-width:1.0;stroke-dasharray:2.0,2.0;" x1="159" x2="319" y1="286.2266" y2="286.2266"/><text fill="#000000" font-family="sans-serif" font-size="13" lengthAdjust="spacing" textLength="80" x="171" y="281.1606">return dump</text><path d="M96,301.2266 L173,301.2266 L173,308.3594 L163,318.3594 L96,318.3594 L96,301.2266 " fill="#EEEEEE" style="stroke:#000000;stroke-width:1.5;"/><rect fill="none" height="366.4609" style="stroke:#000000;stroke-width:1.5;" width="799" x="96" y="301.2266"/><text fill="#000000" font-family="sans-serif" font-size="13" font-weight="bold" lengthAdjust="spacing" textLength="32" x="111" y="314.2935">loop</text><text fill="#000000" font-family="sans-serif" font-size="11" font-weight="bold" lengthAdjust="spacing" textLength="307" x="188" y="313.437">[foreach ICrashDataExport dumper in Providers]</text><polygon fill="#181818" points="636.5,335.4922,646.5,339.4922,636.5,343.4922,640.5,339.4922" style="stroke:#181818;stroke-width:1.0;"/><line style="stroke:#181818;stroke-width:1.0;" x1="154" x2="642.5" y1="339.4922" y2="339.4922"/><text fill="#000000" font-family="sans-serif" font-size="13" lengthAdjust="spacing" textLength="140" x="161" y="334.4263">dumper.Dump(dump)</text><polygon fill="#181818" points="497.5,379.7578,487.5,383.7578,497.5,387.7578,493.5,383.7578" style="stroke:#181818;stroke-width:1.0;"/><line style="stroke:#181818;stroke-width:1.0;" x1="491.5" x2="647.5" y1="383.7578" y2="383.7578"/><text fill="#000000" font-family="sans-serif" font-size="13" lengthAdjust="spacing" textLength="76" x="503.5" y="363.5591">IDumpTable</text><text fill="#000000" font-family="sans-serif" font-size="13" lengthAdjust="spacing" textLength="134" x="507.5" y="378.6919">table = DumpTable()</text><polygon fill="#181818" points="809.5,408.8906,819.5,412.8906,809.5,416.8906,813.5,412.8906" style="stroke:#181818;stroke-width:1.0;"/><line style="stroke:#181818;stroke-width:1.0;" x1="486.5" x2="815.5" y1="412.8906" y2="412.8906"/><text fill="#000000" font-family="sans-serif" font-size="13" lengthAdjust="spacing" textLength="47" x="493.5" y="407.8247">new(...)</text><polygon fill="#181818" points="497.5,422.8906,487.5,426.8906,497.5,430.8906,493.5,426.8906" style="stroke:#181818;stroke-width:1.0;"/><line style="stroke:#181818;stroke-width:1.0;stroke-dasharray:2.0,2.0;" x1="491.5" x2="820.5" y1="426.8906" y2="426.8906"/><polygon fill="#181818" points="636.5,452.0234,646.5,456.0234,636.5,460.0234,640.5,456.0234" style="stroke:#181818;stroke-width:1.0;"/><line style="stroke:#181818;stroke-width:1.0;stroke-dasharray:2.0,2.0;" x1="486.5" x2="642.5" y1="456.0234" y2="456.0234"/><text fill="#000000" font-family="sans-serif" font-size="13" lengthAdjust="spacing" textLength="75" x="493.5" y="450.9575">return table</text><polygon fill="#181818" points="809.5,481.1563,819.5,485.1563,809.5,489.1563,813.5,485.1563" style="stroke:#181818;stroke-width:1.0;"/><line style="stroke:#181818;stroke-width:1.0;" x1="658.5" x2="815.5" y1="485.1563" y2="485.1563"/><text fill="#000000" font-family="sans-serif" font-size="13" lengthAdjust="spacing" textLength="132" x="665.5" y="480.0903">table.DumpHeader()</text><polygon fill="#181818" points="669.5,495.1563,659.5,499.1563,669.5,503.1563,665.5,499.1563" style="stroke:#181818;stroke-width:1.0;"/><line style="stroke:#181818;stroke-width:1.0;stroke-dasharray:2.0,2.0;" x1="663.5" x2="820.5" y1="499.1563" y2="499.1563"/><path d="M577,514.1563 L654,514.1563 L654,521.2891 L644,531.2891 L577,531.2891 L577,514.1563 " fill="#EEEEEE" style="stroke:#000000;stroke-width:1.5;"/><rect fill="none" height="60.2656" style="stroke:#000000;stroke-width:1.5;" width="308" x="577" y="514.1563"/><text fill="#000000" font-family="sans-serif" font-size="13" font-weight="bold" lengthAdjust="spacing" textLength="32" x="592" y="527.2231">loop</text><text fill="#000000" font-family="sans-serif" font-size="11" font-weight="bold" lengthAdjust="spacing" textLength="189" x="669" y="526.3667">[foreach T item in GetRows()]</text><polygon fill="#181818" points="809.5,548.4219,819.5,552.4219,809.5,556.4219,813.5,552.4219" style="stroke:#181818;stroke-width:1.0;"/><line style="stroke:#181818;stroke-width:1.0;" x1="658.5" x2="815.5" y1="552.4219" y2="552.4219"/><text fill="#000000" font-family="sans-serif" font-size="13" lengthAdjust="spacing" textLength="139" x="665.5" y="547.356">table.DumpRow(item)</text><polygon fill="#181818" points="669.5,562.4219,659.5,566.4219,669.5,570.4219,665.5,566.4219" style="stroke:#181818;stroke-width:1.0;"/><line style="stroke:#181818;stroke-width:1.0;stroke-dasharray:2.0,2.0;" x1="663.5" x2="820.5" y1="566.4219" y2="566.4219"/><polygon fill="#181818" points="809.5,598.5547,819.5,602.5547,809.5,606.5547,813.5,602.5547" style="stroke:#181818;stroke-width:1.0;"/><line style="stroke:#181818;stroke-width:1.0;" x1="658.5" x2="815.5" y1="602.5547" y2="602.5547"/><text fill="#000000" font-family="sans-serif" font-size="13" lengthAdjust="spacing" textLength="79" x="665.5" y="597.4888">table.Flush()</text><polygon fill="#181818" points="669.5,612.5547,659.5,616.5547,669.5,620.5547,665.5,616.5547" style="stroke:#181818;stroke-width:1.0;"/><line style="stroke:#181818;stroke-width:1.0;stroke-dasharray:2.0,2.0;" x1="663.5" x2="820.5" y1="616.5547" y2="616.5547"/><polygon fill="#181818" points="814.5,641.6875,824.5,645.6875,814.5,649.6875,818.5,645.6875" style="stroke:#181818;stroke-width:1.0;"/><line style="stroke:#181818;stroke-width:1.0;" x1="658.5" x2="820.5" y1="645.6875" y2="645.6875"/><text fill="#000000" font-family="sans-serif" font-size="13" lengthAdjust="spacing" textLength="97" x="665.5" y="640.6216">table.Dispose()</text><line style="stroke:#A80036;stroke-width:2.0;" x1="817.5" x2="835.5" y1="636.6875" y2="654.6875"/><line style="stroke:#A80036;stroke-width:2.0;" x1="817.5" x2="835.5" y1="654.6875" y2="636.6875"/><polygon fill="#181818" points="165,655.6875,155,659.6875,165,663.6875,161,659.6875" style="stroke:#181818;stroke-width:1.0;"/><line style="stroke:#181818;stroke-width:1.0;stroke-dasharray:2.0,2.0;" x1="159" x2="652.5" y1="659.6875" y2="659.6875"/><polygon fill="#181818" points="464.5,691.8203,474.5,695.8203,464.5,699.8203,468.5,695.8203" style="stroke:#181818;stroke-width:1.0;"/><line style="stroke:#181818;stroke-width:1.0;" x1="154" x2="470.5" y1="695.8203" y2="695.8203"/><text fill="#000000" font-family="sans-serif" font-size="13" lengthAdjust="spacing" textLength="84" x="161" y="690.7544">dump.Flush()</text><polygon fill="#181818" points="165,705.8203,155,709.8203,165,713.8203,161,709.8203" style="stroke:#181818;stroke-width:1.0;"/><line style="stroke:#181818;stroke-width:1.0;stroke-dasharray:2.0,2.0;" x1="159" x2="475.5" y1="709.8203" y2="709.8203"/><polygon fill="#181818" points="469.5,734.9531,479.5,738.9531,469.5,742.9531,473.5,738.9531" style="stroke:#181818;stroke-width:1.0;"/><line style="stroke:#181818;stroke-width:1.0;" x1="154" x2="475.5" y1="738.9531" y2="738.9531"/><text fill="#000000" font-family="sans-serif" font-size="13" lengthAdjust="spacing" textLength="102" x="161" y="733.8872">dump.Dispose()</text><line style="stroke:#A80036;stroke-width:2.0;" x1="472.5" x2="490.5" y1="729.9531" y2="747.9531"/><line style="stroke:#A80036;stroke-width:2.0;" x1="472.5" x2="490.5" y1="747.9531" y2="729.9531"/><polygon fill="#181818" points="35,764.0859,25,768.0859,35,772.0859,31,768.0859" style="stroke:#181818;stroke-width:1.0;"/><line style="stroke:#181818;stroke-width:1.0;stroke-dasharray:2.0,2.0;" x1="29" x2="148" y1="768.0859" y2="768.0859"/><text fill="#000000" font-family="sans-serif" font-size="13" lengthAdjust="spacing" textLength="72" x="41" y="763.02">return path</text><!--SRC=[dLJ1Si8W4Btp5HpZmNo0C_LYQ-lDwTXRBzHi6sOqC81Q_xuBqa02Q6qknh3lxTktoxAj4Og-QL14CcNubalM6RfGJBUFpB31rzNbys4lbypYphbJ1Ba8leF2yTEt5CeC3orampuGGwmOEfq73NH6jL6y-thlg6IcfG_KXbSJWYhuaHc8z9806t4yWt5_rqY1s45SKXd6f_LW_WPVCVz20QQjh9f8HUeFIOb3jeWPqtLmgkgwJkbYGqa6EitfpoKU-Q707DIb8jB0jI9sGaZwAR3cRPlqqH5WntX7rqeSUGDA4ufFpk20cdbSxLfftoSEbQdUpuizJMXAReQ1mgOP- -kdndt3ze_eWflp21ktPIWkp2lrJuIQPbM5oAizZ2toBJB3H3aFOiaktFdw0WpRKKrkY_GUzu63bcyeDx2t7SOxz2fEEcAyKn6YAqis8hWXwpSEkiOfkzUBvUwWs__OyDVAk9P2Wy_G0AuhSHuijJnPV2Czj3p_VV6aSBEYyRVtgQ-wC6-bdLac36Ns9MPML4I6R6wRzvDi5sQyRFhO7m00]--></g></svg>