<?xml version="1.0" encoding="us-ascii" standalone="no"?><svg xmlns="http://www.w3.org/2000/svg" xmlns:xlink="http://www.w3.org/1999/xlink" contentStyleType="text/css" height="565px" preserveAspectRatio="none" style="width:963px;height:565px;background:#FFFFFF;" version="1.1" viewBox="0 0 963 565" width="963px" zoomAndPan="magnify"><defs/><g><g id="cluster_##2"><rect fill="none" height="80" rx="2.5" ry="2.5" style="stroke:#181818;stroke-width:1.0;" width="124" x="7" y="227"/></g><g id="cluster_##5"><rect fill="none" height="552" rx="2.5" ry="2.5" style="stroke:#181818;stroke-width:1.0;" width="754" x="203" y="7"/></g><!--class UserApp--><g id="elem_UserApp"><rect codeLine="2" fill="#FFDD33" height="48" id="UserApp" rx="2.5" ry="2.5" style="stroke:#181818;stroke-width:0.5;" width="91" x="23.5" y="243"/><ellipse cx="38.5" cy="259" fill="#ADD1B2" rx="11" ry="11" style="stroke:#181818;stroke-width:1.0;"/><path d="M41.4688,264.6406 Q40.8906,264.9375 40.25,265.0781 Q39.6094,265.2344 38.9063,265.2344 Q36.4063,265.2344 35.0781,263.5938 Q33.7656,261.9375 33.7656,258.8125 Q33.7656,255.6875 35.0781,254.0313 Q36.4063,252.375 38.9063,252.375 Q39.6094,252.375 40.25,252.5313 Q40.9063,252.6875 41.4688,252.9844 L41.4688,255.7031 Q40.8438,255.125 40.25,254.8594 Q39.6563,254.5781 39.0313,254.5781 Q37.6875,254.5781 37,255.6563 Q36.3125,256.7188 36.3125,258.8125 Q36.3125,260.9063 37,261.9844 Q37.6875,263.0469 39.0313,263.0469 Q39.6563,263.0469 40.25,262.7813 Q40.8438,262.5 41.4688,261.9219 L41.4688,264.6406 Z " fill="#000000"/><text fill="#000000" font-family="sans-serif" font-size="14" lengthAdjust="spacing" textLength="59" x="52.5" y="263.8467">UserApp</text><line style="stroke:#181818;stroke-width:0.5;" x1="24.5" x2="113.5" y1="275" y2="275"/><line style="stroke:#181818;stroke-width:0.5;" x1="24.5" x2="113.5" y1="283" y2="283"/></g><!--class ICollection--><g id="elem_ICollection"><rect codeLine="6" fill="#F1F1F1" height="48" id="ICollection" rx="2.5" ry="2.5" style="stroke:#181818;stroke-width:0.5;" width="161" x="652.5" y="132"/><ellipse cx="667.5" cy="148" fill="#B4A7E5" rx="11" ry="11" style="stroke:#181818;stroke-width:1.0;"/><path d="M663.4219,143.7656 L663.4219,141.6094 L670.8125,141.6094 L670.8125,143.7656 L668.3438,143.7656 L668.3438,151.8438 L670.8125,151.8438 L670.8125,154 L663.4219,154 L663.4219,151.8438 L665.8906,151.8438 L665.8906,143.7656 L663.4219,143.7656 Z " fill="#000000"/><text fill="#000000" font-family="sans-serif" font-size="14" font-style="italic" lengthAdjust="spacing" textLength="71" x="681.5" y="152.8467">ICollection</text><rect fill="#FFFFFF" height="15.9688" style="stroke:#181818;stroke-width:1.0;stroke-dasharray:2.0,2.0;" width="56" x="760.5" y="129"/><text fill="#000000" font-family="sans-serif" font-size="12" font-style="italic" lengthAdjust="spacing" textLength="54" x="761.5" y="141.1387">LogEntry</text><line style="stroke:#181818;stroke-width:0.5;" x1="653.5" x2="812.5" y1="164" y2="164"/><line style="stroke:#181818;stroke-width:0.5;" x1="653.5" x2="812.5" y1="172" y2="172"/></g><!--class IMemoryLog--><g id="elem_IMemoryLog"><rect codeLine="7" fill="#F1F1F1" height="48" id="IMemoryLog" rx="2.5" ry="2.5" style="stroke:#181818;stroke-width:0.5;" width="115" x="675.5" y="243"/><ellipse cx="690.5" cy="259" fill="#B4A7E5" rx="11" ry="11" style="stroke:#181818;stroke-width:1.0;"/><path d="M686.4219,254.7656 L686.4219,252.6094 L693.8125,252.6094 L693.8125,254.7656 L691.3438,254.7656 L691.3438,262.8438 L693.8125,262.8438 L693.8125,265 L686.4219,265 L686.4219,262.8438 L688.8906,262.8438 L688.8906,254.7656 L686.4219,254.7656 Z " fill="#000000"/><text fill="#000000" font-family="sans-serif" font-size="14" font-style="italic" lengthAdjust="spacing" textLength="83" x="704.5" y="263.8467">IMemoryLog</text><line style="stroke:#181818;stroke-width:0.5;" x1="676.5" x2="789.5" y1="275" y2="275"/><line style="stroke:#181818;stroke-width:0.5;" x1="676.5" x2="789.5" y1="283" y2="283"/></g><!--class ICrashDataExport--><g id="elem_ICrashDataExport"><rect codeLine="8" fill="#F1F1F1" height="48" id="ICrashDataExport" rx="2.5" ry="2.5" style="stroke:#181818;stroke-width:0.5;" width="151" x="255.5" y="370"/><ellipse cx="270.5" cy="386" fill="#B4A7E5" rx="11" ry="11" style="stroke:#181818;stroke-width:1.0;"/><path d="M266.4219,381.7656 L266.4219,379.6094 L273.8125,379.6094 L273.8125,381.7656 L271.3438,381.7656 L271.3438,389.8438 L273.8125,389.8438 L273.8125,392 L266.4219,392 L266.4219,389.8438 L268.8906,389.8438 L268.8906,381.7656 L266.4219,381.7656 Z " fill="#000000"/><text fill="#000000" font-family="sans-serif" font-size="14" font-style="italic" lengthAdjust="spacing" textLength="119" x="284.5" y="390.8467">ICrashDataExport</text><line style="stroke:#181818;stroke-width:0.5;" x1="256.5" x2="405.5" y1="402" y2="402"/><line style="stroke:#181818;stroke-width:0.5;" x1="256.5" x2="405.5" y1="410" y2="410"/></g><!--class LogEntry--><g id="elem_LogEntry"><rect codeLine="9" fill="#F1F1F1" height="48" id="LogEntry" rx="2.5" ry="2.5" style="stroke:#181818;stroke-width:0.5;" width="92" x="849" y="370"/><ellipse cx="864" cy="386" fill="#ADD1B2" rx="11" ry="11" style="stroke:#181818;stroke-width:1.0;"/><path d="M866.9688,391.6406 Q866.3906,391.9375 865.75,392.0781 Q865.1094,392.2344 864.4063,392.2344 Q861.9063,392.2344 860.5781,390.5938 Q859.2656,388.9375 859.2656,385.8125 Q859.2656,382.6875 860.5781,381.0313 Q861.9063,379.375 864.4063,379.375 Q865.1094,379.375 865.75,379.5313 Q866.4063,379.6875 866.9688,379.9844 L866.9688,382.7031 Q866.3438,382.125 865.75,381.8594 Q865.1563,381.5781 864.5313,381.5781 Q863.1875,381.5781 862.5,382.6563 Q861.8125,383.7188 861.8125,385.8125 Q861.8125,387.9063 862.5,388.9844 Q863.1875,390.0469 864.5313,390.0469 Q865.1563,390.0469 865.75,389.7813 Q866.3438,389.5 866.9688,388.9219 L866.9688,391.6406 Z " fill="#000000"/><text fill="#000000" font-family="sans-serif" font-size="14" lengthAdjust="spacing" textLength="60" x="878" y="390.8467">LogEntry</text><line style="stroke:#181818;stroke-width:0.5;" x1="850" x2="940" y1="402" y2="402"/><line style="stroke:#181818;stroke-width:0.5;" x1="850" x2="940" y1="410" y2="410"/></g><!--class SimplePrioMemoryTraceListener--><g id="elem_SimplePrioMemoryTraceListener"><rect codeLine="10" fill="#F1F1F1" height="48" id="SimplePrioMemoryTraceListener" rx="2.5" ry="2.5" style="stroke:#181818;stroke-width:0.5;" width="253" x="387.5" y="243"/><ellipse cx="402.5" cy="259" fill="#ADD1B2" rx="11" ry="11" style="stroke:#181818;stroke-width:1.0;"/><path d="M405.4688,264.6406 Q404.8906,264.9375 404.25,265.0781 Q403.6094,265.2344 402.9063,265.2344 Q400.4063,265.2344 399.0781,263.5938 Q397.7656,261.9375 397.7656,258.8125 Q397.7656,255.6875 399.0781,254.0313 Q400.4063,252.375 402.9063,252.375 Q403.6094,252.375 404.25,252.5313 Q404.9063,252.6875 405.4688,252.9844 L405.4688,255.7031 Q404.8438,255.125 404.25,254.8594 Q403.6563,254.5781 403.0313,254.5781 Q401.6875,254.5781 401,255.6563 Q400.3125,256.7188 400.3125,258.8125 Q400.3125,260.9063 401,261.9844 Q401.6875,263.0469 403.0313,263.0469 Q403.6563,263.0469 404.25,262.7813 Q404.8438,262.5 405.4688,261.9219 L405.4688,264.6406 Z " fill="#000000"/><text fill="#000000" font-family="sans-serif" font-size="14" lengthAdjust="spacing" textLength="221" x="416.5" y="263.8467">SimplePrioMemoryTraceListener</text><line style="stroke:#181818;stroke-width:0.5;" x1="388.5" x2="639.5" y1="275" y2="275"/><line style="stroke:#181818;stroke-width:0.5;" x1="388.5" x2="639.5" y1="283" y2="283"/></g><!--class SimplePrioMemoryLog--><g id="elem_SimplePrioMemoryLog"><rect codeLine="11" fill="#F1F1F1" height="48" id="SimplePrioMemoryLog" rx="2.5" ry="2.5" style="stroke:#181818;stroke-width:0.5;" width="184" x="630" y="370"/><ellipse cx="645" cy="386" fill="#ADD1B2" rx="11" ry="11" style="stroke:#181818;stroke-width:1.0;"/><path d="M647.9688,391.6406 Q647.3906,391.9375 646.75,392.0781 Q646.1094,392.2344 645.4063,392.2344 Q642.9063,392.2344 641.5781,390.5938 Q640.2656,388.9375 640.2656,385.8125 Q640.2656,382.6875 641.5781,381.0313 Q642.9063,379.375 645.4063,379.375 Q646.1094,379.375 646.75,379.5313 Q647.4063,379.6875 647.9688,379.9844 L647.9688,382.7031 Q647.3438,382.125 646.75,381.8594 Q646.1563,381.5781 645.5313,381.5781 Q644.1875,381.5781 643.5,382.6563 Q642.8125,383.7188 642.8125,385.8125 Q642.8125,387.9063 643.5,388.9844 Q644.1875,390.0469 645.5313,390.0469 Q646.1563,390.0469 646.75,389.7813 Q647.3438,389.5 647.9688,388.9219 L647.9688,391.6406 Z " fill="#000000"/><text fill="#000000" font-family="sans-serif" font-size="14" lengthAdjust="spacing" textLength="152" x="659" y="390.8467">SimplePrioMemoryLog</text><line style="stroke:#181818;stroke-width:0.5;" x1="631" x2="813" y1="402" y2="402"/><line style="stroke:#181818;stroke-width:0.5;" x1="631" x2="813" y1="410" y2="410"/></g><!--class MemoryTraceListener--><g id="elem_MemoryTraceListener"><rect codeLine="12" fill="#F1F1F1" height="48" id="MemoryTraceListener" rx="2.5" ry="2.5" style="stroke:#181818;stroke-width:0.5;" width="181" x="273.5" y="132"/><ellipse cx="288.5" cy="148" fill="#ADD1B2" rx="11" ry="11" style="stroke:#181818;stroke-width:1.0;"/><path d="M291.4688,153.6406 Q290.8906,153.9375 290.25,154.0781 Q289.6094,154.2344 288.9063,154.2344 Q286.4063,154.2344 285.0781,152.5938 Q283.7656,150.9375 283.7656,147.8125 Q283.7656,144.6875 285.0781,143.0313 Q286.4063,141.375 288.9063,141.375 Q289.6094,141.375 290.25,141.5313 Q290.9063,141.6875 291.4688,141.9844 L291.4688,144.7031 Q290.8438,144.125 290.25,143.8594 Q289.6563,143.5781 289.0313,143.5781 Q287.6875,143.5781 287,144.6563 Q286.3125,145.7188 286.3125,147.8125 Q286.3125,149.9063 287,150.9844 Q287.6875,152.0469 289.0313,152.0469 Q289.6563,152.0469 290.25,151.7813 Q290.8438,151.5 291.4688,150.9219 L291.4688,153.6406 Z " fill="#000000"/><text fill="#000000" font-family="sans-serif" font-size="14" lengthAdjust="spacing" textLength="149" x="302.5" y="152.8467">MemoryTraceListener</text><line style="stroke:#181818;stroke-width:0.5;" x1="274.5" x2="453.5" y1="164" y2="164"/><line style="stroke:#181818;stroke-width:0.5;" x1="274.5" x2="453.5" y1="172" y2="172"/></g><!--class TraceListener--><g id="elem_TraceListener"><rect codeLine="13" fill="#F1F1F1" height="48" id="TraceListener" rx="2.5" ry="2.5" style="stroke:#181818;stroke-width:0.5;" width="126" x="301" y="23"/><ellipse cx="316" cy="39" fill="#ADD1B2" rx="11" ry="11" style="stroke:#181818;stroke-width:1.0;"/><path d="M318.9688,44.6406 Q318.3906,44.9375 317.75,45.0781 Q317.1094,45.2344 316.4063,45.2344 Q313.9063,45.2344 312.5781,43.5938 Q311.2656,41.9375 311.2656,38.8125 Q311.2656,35.6875 312.5781,34.0313 Q313.9063,32.375 316.4063,32.375 Q317.1094,32.375 317.75,32.5313 Q318.4063,32.6875 318.9688,32.9844 L318.9688,35.7031 Q318.3438,35.125 317.75,34.8594 Q317.1563,34.5781 316.5313,34.5781 Q315.1875,34.5781 314.5,35.6563 Q313.8125,36.7188 313.8125,38.8125 Q313.8125,40.9063 314.5,41.9844 Q315.1875,43.0469 316.5313,43.0469 Q317.1563,43.0469 317.75,42.7813 Q318.3438,42.5 318.9688,41.9219 L318.9688,44.6406 Z " fill="#000000"/><text fill="#000000" font-family="sans-serif" font-size="14" lengthAdjust="spacing" textLength="94" x="330" y="43.8467">TraceListener</text><line style="stroke:#181818;stroke-width:0.5;" x1="302" x2="426" y1="55" y2="55"/><line style="stroke:#181818;stroke-width:0.5;" x1="302" x2="426" y1="63" y2="63"/></g><!--class MemoryLogDump--><g id="elem_MemoryLogDump"><rect codeLine="14" fill="#F1F1F1" height="48" id="MemoryLogDump" rx="2.5" ry="2.5" style="stroke:#181818;stroke-width:0.5;" width="154" x="441" y="370"/><ellipse cx="456" cy="386" fill="#ADD1B2" rx="11" ry="11" style="stroke:#181818;stroke-width:1.0;"/><path d="M458.9688,391.6406 Q458.3906,391.9375 457.75,392.0781 Q457.1094,392.2344 456.4063,392.2344 Q453.9063,392.2344 452.5781,390.5938 Q451.2656,388.9375 451.2656,385.8125 Q451.2656,382.6875 452.5781,381.0313 Q453.9063,379.375 456.4063,379.375 Q457.1094,379.375 457.75,379.5313 Q458.4063,379.6875 458.9688,379.9844 L458.9688,382.7031 Q458.3438,382.125 457.75,381.8594 Q457.1563,381.5781 456.5313,381.5781 Q455.1875,381.5781 454.5,382.6563 Q453.8125,383.7188 453.8125,385.8125 Q453.8125,387.9063 454.5,388.9844 Q455.1875,390.0469 456.5313,390.0469 Q457.1563,390.0469 457.75,389.7813 Q458.3438,389.5 458.9688,388.9219 L458.9688,391.6406 Z " fill="#000000"/><text fill="#000000" font-family="sans-serif" font-size="14" lengthAdjust="spacing" textLength="122" x="470" y="390.8467">MemoryLogDump</text><line style="stroke:#181818;stroke-width:0.5;" x1="442" x2="594" y1="402" y2="402"/><line style="stroke:#181818;stroke-width:0.5;" x1="442" x2="594" y1="410" y2="410"/></g><!--class Crash--><g id="elem_Crash"><rect codeLine="15" fill="#F1F1F1" height="48" id="Crash" rx="2.5" ry="2.5" style="stroke:#181818;stroke-width:0.5;" width="72" x="219" y="495"/><ellipse cx="234" cy="511" fill="#ADD1B2" rx="11" ry="11" style="stroke:#181818;stroke-width:1.0;"/><path d="M236.9688,516.6406 Q236.3906,516.9375 235.75,517.0781 Q235.1094,517.2344 234.4063,517.2344 Q231.9063,517.2344 230.5781,515.5938 Q229.2656,513.9375 229.2656,510.8125 Q229.2656,507.6875 230.5781,506.0313 Q231.9063,504.375 234.4063,504.375 Q235.1094,504.375 235.75,504.5313 Q236.4063,504.6875 236.9688,504.9844 L236.9688,507.7031 Q236.3438,507.125 235.75,506.8594 Q235.1563,506.5781 234.5313,506.5781 Q233.1875,506.5781 232.5,507.6563 Q231.8125,508.7188 231.8125,510.8125 Q231.8125,512.9063 232.5,513.9844 Q233.1875,515.0469 234.5313,515.0469 Q235.1563,515.0469 235.75,514.7813 Q236.3438,514.5 236.9688,513.9219 L236.9688,516.6406 Z " fill="#000000"/><text fill="#000000" font-family="sans-serif" font-size="14" lengthAdjust="spacing" textLength="40" x="248" y="515.8467">Crash</text><line style="stroke:#181818;stroke-width:0.5;" x1="220" x2="290" y1="527" y2="527"/><line style="stroke:#181818;stroke-width:0.5;" x1="220" x2="290" y1="535" y2="535"/></g><!--reverse link ICollection to IMemoryLog--><g id="link_ICollection_IMemoryLog"><path codeLine="17" d="M733,201.29 C733,215.46 733,230.59 733,242.66 " fill="none" id="ICollection-backto-IMemoryLog" style="stroke:#181818;stroke-width:1.0;stroke-dasharray:7.0,7.0;"/><polygon fill="none" points="726,201.38,733,181.38,740,201.38,726,201.38" style="stroke:#181818;stroke-width:1.0;"/></g><!--reverse link IMemoryLog to SimplePrioMemoryLog--><g id="link_IMemoryLog_SimplePrioMemoryLog"><path codeLine="18" d="M729.12,312.04 C727.41,331.55 725.46,353.71 724.03,369.91 " fill="none" id="IMemoryLog-backto-SimplePrioMemoryLog" style="stroke:#181818;stroke-width:1.0;stroke-dasharray:7.0,7.0;"/><polygon fill="none" points="722.23,311.53,730.96,292.22,736.18,312.76,722.23,311.53" style="stroke:#181818;stroke-width:1.0;"/></g><!--reverse link SimplePrioMemoryLog to LogEntry--><g id="link_SimplePrioMemoryLog_LogEntry"><path codeLine="19" d="M828.21,394 C835.02,394 841.82,394 848.63,394 " fill="none" id="SimplePrioMemoryLog-backto-LogEntry" style="stroke:#181818;stroke-width:1.0;"/><polygon fill="#181818" points="815.24,394,821.24,398,827.24,394,821.24,390,815.24,394" style="stroke:#181818;stroke-width:1.0;"/><text fill="#000000" font-family="sans-serif" font-size="13" lengthAdjust="spacing" textLength="8" x="821.9091" y="390.4745">1</text><text fill="#000000" font-family="sans-serif" font-size="13" lengthAdjust="spacing" textLength="7" x="833.9937" y="389.9286">*</text></g><!--reverse link MemoryTraceListener to SimplePrioMemoryTraceListener--><g id="link_MemoryTraceListener_SimplePrioMemoryTraceListener"><path codeLine="20" d="M412.98,192.59 C435.6,209.03 461.82,228.08 481.87,242.66 " fill="none" id="MemoryTraceListener-backto-SimplePrioMemoryTraceListener" style="stroke:#181818;stroke-width:1.0;"/><polygon fill="none" points="409.24,197.8,397.18,180.38,417.47,186.48,409.24,197.8" style="stroke:#181818;stroke-width:1.0;"/></g><!--reverse link SimplePrioMemoryTraceListener to SimplePrioMemoryLog--><g id="link_SimplePrioMemoryTraceListener_SimplePrioMemoryLog"><path codeLine="21" d="M564.53,298.36 C601.07,320.33 649.71,349.56 683.22,369.69 " fill="none" id="SimplePrioMemoryTraceListener-backto-SimplePrioMemoryLog" style="stroke:#181818;stroke-width:1.0;"/><polygon fill="#181818" points="553.64,291.22,556.7208,297.7399,563.9241,297.4036,560.8433,290.8838,553.64,291.22" style="stroke:#181818;stroke-width:1.0;"/></g><!--reverse link TraceListener to MemoryTraceListener--><g id="link_TraceListener_MemoryTraceListener"><path codeLine="22" d="M364,92.17 C364,105.68 364,120.01 364,131.57 " fill="none" id="TraceListener-backto-MemoryTraceListener" style="stroke:#181818;stroke-width:1.0;"/><polygon fill="none" points="357,92.48,364,72.48,371,92.48,357,92.48" style="stroke:#181818;stroke-width:1.0;"/></g><!--reverse link SimplePrioMemoryTraceListener to MemoryLogDump--><g id="link_SimplePrioMemoryTraceListener_MemoryLogDump"><path codeLine="23" d="M515.19,305.2 C515.86,326.2 516.68,351.79 517.26,369.91 " fill="none" id="SimplePrioMemoryTraceListener-backto-MemoryLogDump" style="stroke:#181818;stroke-width:1.0;"/><polygon fill="#181818" points="514.74,292.22,510.9331,298.3444,515.1222,304.2139,518.9291,298.0895,514.74,292.22" style="stroke:#181818;stroke-width:1.0;"/></g><!--reverse link MemoryLogDump to SimplePrioMemoryLog--><g id="link_MemoryLogDump_SimplePrioMemoryLog"><path codeLine="24" d="M609.1,394 C616.05,394 623,394 629.94,394 " fill="none" id="MemoryLogDump-backto-SimplePrioMemoryLog" style="stroke:#181818;stroke-width:1.0;"/><polygon fill="none" points="596.3,394,602.3,398,608.3,394,602.3,390,596.3,394" style="stroke:#181818;stroke-width:1.0;"/></g><!--reverse link ICrashDataExport to MemoryLogDump--><g id="link_ICrashDataExport_MemoryLogDump"><path codeLine="25" d="M427.85,394 C432.16,394 436.48,394 440.8,394 " fill="none" id="ICrashDataExport-backto-MemoryLogDump" style="stroke:#181818;stroke-width:1.0;stroke-dasharray:7.0,7.0;"/><polygon fill="none" points="427.97,401,407.97,394,427.97,387,427.97,401" style="stroke:#181818;stroke-width:1.0;"/></g><!--reverse link MemoryLogDump to Crash--><g id="link_MemoryLogDump_Crash"><path codeLine="26" d="M462.69,420.87 C411.13,444.98 335.72,480.25 291.37,500.99 " fill="none" id="MemoryLogDump-backto-Crash" style="stroke:#181818;stroke-width:1.0;stroke-dasharray:7.0,7.0;"/><polygon fill="#181818" points="466.91,418.42,457.0628,418.6029,462.3794,420.5352,460.4472,425.8518,466.91,418.42" style="stroke:#181818;stroke-width:1.0;"/><text fill="#000000" font-family="sans-serif" font-size="13" lengthAdjust="spacing" textLength="84" x="403" y="461.0669">&#171;references&#187;</text></g><!--link MemoryTraceListener to Crash--><g id="link_MemoryTraceListener_Crash"><path codeLine="27" d="M344.41,180.28 C314.52,217.49 258.81,293.95 238,370 C226.95,410.39 236.68,458.9 245.32,489.09 " fill="none" id="MemoryTraceListener-to-Crash" style="stroke:#181818;stroke-width:1.0;stroke-dasharray:7.0,7.0;"/><polygon fill="#181818" points="246.92,493.51,248.2053,483.7454,245.503,488.715,240.5333,486.0126,246.92,493.51" style="stroke:#181818;stroke-width:1.0;"/><text fill="#000000" font-family="sans-serif" font-size="13" lengthAdjust="spacing" textLength="72" x="255" y="336.0669">&#171;registers&#187;</text></g><!--link UserApp to SimplePrioMemoryTraceListener--><g id="link_UserApp_SimplePrioMemoryTraceListener"><path codeLine="30" d="M114.95,267 C177.31,267 291.32,267 381.55,267 " fill="none" id="UserApp-to-SimplePrioMemoryTraceListener" style="stroke:#181818;stroke-width:1.0;"/><polygon fill="#181818" points="386.46,267,377.46,263,381.46,267,377.46,271,386.46,267" style="stroke:#181818;stroke-width:1.0;"/><text fill="#000000" font-family="sans-serif" font-size="13" lengthAdjust="spacing" textLength="59" x="221.5" y="260.0669">&#171;logs to&#187;</text></g><!--link UserApp to Crash--><g id="link_UserApp_Crash"><path codeLine="31" d="M67.63,291.48 C66.95,322.98 69.95,379.4 96,418 C124.26,459.86 176.52,487.67 213.4,503.11 " fill="none" id="UserApp-to-Crash" style="stroke:#181818;stroke-width:1.0;"/><polygon fill="#181818" points="217.73,505.3,210.9232,498.1819,213.1045,503.4013,207.8852,505.5827,217.73,505.3" style="stroke:#181818;stroke-width:1.0;"/><text fill="#000000" font-family="sans-serif" font-size="13" lengthAdjust="spacing" textLength="113" x="97" y="398.5669">&#171;requests dump&#187;</text></g><!--SRC=[bLFHQeGm47ptAnRlxI12kRSYWTAxXuCxABJzW61MAyGatKJeqVRV6nMlQjMZFixEpCuEXZ3pGXSAuJE2y6LAE0Ul3kd1MjZakPIxNVGTHJGXbjeZvI93E3uQfSAqD3ezcUAWFLtub7F6oj0bZF-8IRYtlV3Yy64D-K68tci0FPULLVX4fUdyNYXud4hdKIEjyFgztNHTkuHVdVPrPGTuUq3K0hzNGb8dNtnOJKkOoTKpnq7dYF5T35j63E9jF2vdjHPWDGiBbevUrxRxbjfSNlR_DPBD53n2mDpEqbCJrRK_ys-rM5CwdsZk8Kq9SoJK6JhE5qzCPD1sDfscQ2RKIC8xwPzE2CjlNDsebIaSU1EqLw5aO_lt6frt84D8pdy0]--></g></svg>