<?xml version="1.0" encoding="UTF-8" standalone="no"?><svg xmlns="http://www.w3.org/2000/svg" xmlns:xlink="http://www.w3.org/1999/xlink" contentScriptType="application/ecmascript" contentStyleType="text/css" height="573px" preserveAspectRatio="none" style="width:868px;height:573px;background:#FFFFFF;" version="1.1" viewBox="0 0 868 573" width="868px" zoomAndPan="magnify"><defs><filter height="300%" id="f10i2pz4vastdj" width="300%" x="-1" y="-1"><feGaussianBlur result="blurOut" stdDeviation="2.0"/><feColorMatrix in="blurOut" result="blurOut2" type="matrix" values="0 0 0 0 0 0 0 0 0 0 0 0 0 0 0 0 0 0 .4 0"/><feOffset dx="4.0" dy="4.0" in="blurOut2" result="blurOut3"/><feBlend in="SourceGraphic" in2="blurOut3" mode="normal"/></filter></defs><g><rect fill="#FFFFFF" filter="url(#f10i2pz4vastdj)" height="80" style="stroke:#000000;stroke-width:1.5;" width="112" x="7" y="227"/><rect fill="#FFFFFF" filter="url(#f10i2pz4vastdj)" height="554" style="stroke:#000000;stroke-width:1.5;" width="672" x="184" y="7"/><!--MD5=[ed03d9e1dcf386a6ed6959a81bc2feba]
class UserApp--><rect codeLine="3" fill="#FFDD33" filter="url(#f10i2pz4vastdj)" height="48" id="UserApp" style="stroke:#A80036;stroke-width:1.5;" width="80" x="23" y="243"/><ellipse cx="38" cy="259" fill="#ADD1B2" rx="11" ry="11" style="stroke:#A80036;stroke-width:1.0;"/><path d="M40.7656,254.875 Q40.9219,254.6563 41.1094,254.5469 Q41.2969,254.4375 41.5156,254.4375 Q41.8906,254.4375 42.125,254.6953 Q42.3594,254.9531 42.3594,255.5625 L42.3594,257.0156 Q42.3594,257.625 42.125,257.8906 Q41.8906,258.1563 41.5156,258.1563 Q41.1719,258.1563 40.9688,257.9531 Q40.7656,257.7656 40.6563,257.25 Q40.6094,256.8906 40.4219,256.7031 Q40.0938,256.3281 39.4844,256.1094 Q38.875,255.8906 38.25,255.8906 Q37.4844,255.8906 36.8516,256.2188 Q36.2188,256.5469 35.7266,257.2969 Q35.2344,258.0469 35.2344,259.0781 L35.2344,260.1719 Q35.2344,261.4063 36.125,262.2266 Q37.0156,263.0469 38.6094,263.0469 Q39.5469,263.0469 40.2031,262.7969 Q40.5938,262.6406 41.0156,262.2031 Q41.2813,261.9375 41.4297,261.8594 Q41.5781,261.7813 41.7813,261.7813 Q42.1094,261.7813 42.3672,262.0391 Q42.625,262.2969 42.625,262.6406 Q42.625,262.9844 42.2813,263.3906 Q41.7813,263.9688 40.9844,264.2969 Q39.9063,264.75 38.6094,264.75 Q37.0938,264.75 35.8906,264.125 Q34.9063,263.625 34.2188,262.5547 Q33.5313,261.4844 33.5313,260.2031 L33.5313,259.0469 Q33.5313,257.7188 34.1484,256.5703 Q34.7656,255.4219 35.8594,254.8047 Q36.9531,254.1875 38.1875,254.1875 Q38.9219,254.1875 39.5703,254.3516 Q40.2188,254.5156 40.7656,254.875 Z " fill="#000000"/><text fill="#000000" font-family="sans-serif" font-size="12" lengthAdjust="spacing" textLength="48" x="52" y="263.9102">UserApp</text><line style="stroke:#A80036;stroke-width:1.5;" x1="24" x2="102" y1="275" y2="275"/><line style="stroke:#A80036;stroke-width:1.5;" x1="24" x2="102" y1="283" y2="283"/><!--MD5=[00e26693e2858d7cce830424ef4d5ed2]
class ICollection--><rect codeLine="7" fill="#FEFECE" filter="url(#f10i2pz4vastdj)" height="48" id="ICollection" style="stroke:#A80036;stroke-width:1.5;" width="144" x="583" y="132"/><ellipse cx="598" cy="148" fill="#B4A7E5" rx="11" ry="11" style="stroke:#A80036;stroke-width:1.0;"/><path d="M598.9531,144.6406 L598.9531,151.2969 L600.6719,151.2969 Q601.2813,151.2969 601.5469,151.5313 Q601.8125,151.7656 601.8125,152.1563 Q601.8125,152.5313 601.5469,152.7656 Q601.2813,153 600.6719,153 L595.5313,153 Q594.9219,153 594.6563,152.7656 Q594.3906,152.5313 594.3906,152.1406 Q594.3906,151.7656 594.6563,151.5313 Q594.9219,151.2969 595.5313,151.2969 L597.25,151.2969 L597.25,144.6406 L595.5313,144.6406 Q594.9219,144.6406 594.6563,144.4063 Q594.3906,144.1719 594.3906,143.7813 Q594.3906,143.4063 594.6563,143.1719 Q594.9219,142.9375 595.5313,142.9375 L600.6719,142.9375 Q601.2813,142.9375 601.5469,143.1719 Q601.8125,143.4063 601.8125,143.7813 Q601.8125,144.1719 601.5469,144.4063 Q601.2813,144.6406 600.6719,144.6406 L598.9531,144.6406 Z " fill="#000000"/><text fill="#000000" font-family="sans-serif" font-size="12" font-style="italic" lengthAdjust="spacing" textLength="59" x="612" y="152.9102">ICollection</text><rect fill="#FFFFFF" height="17.0938" style="stroke:#000000;stroke-width:1.0;stroke-dasharray:2.0,2.0;" width="51" x="679" y="129"/><text fill="#000000" font-family="sans-serif" font-size="12" font-style="italic" lengthAdjust="spacing" textLength="49" x="680" y="142.457">LogEntry</text><line style="stroke:#A80036;stroke-width:1.5;" x1="584" x2="726" y1="164" y2="164"/><line style="stroke:#A80036;stroke-width:1.5;" x1="584" x2="726" y1="172" y2="172"/><!--MD5=[c180d99d0f677053ebe622390156d4da]
class IMemoryLog--><rect codeLine="8" fill="#FEFECE" filter="url(#f10i2pz4vastdj)" height="48" id="IMemoryLog" style="stroke:#A80036;stroke-width:1.5;" width="101" x="604.5" y="243"/><ellipse cx="619.5" cy="259" fill="#B4A7E5" rx="11" ry="11" style="stroke:#A80036;stroke-width:1.0;"/><path d="M620.4531,255.6406 L620.4531,262.2969 L622.1719,262.2969 Q622.7813,262.2969 623.0469,262.5313 Q623.3125,262.7656 623.3125,263.1563 Q623.3125,263.5313 623.0469,263.7656 Q622.7813,264 622.1719,264 L617.0313,264 Q616.4219,264 616.1563,263.7656 Q615.8906,263.5313 615.8906,263.1406 Q615.8906,262.7656 616.1563,262.5313 Q616.4219,262.2969 617.0313,262.2969 L618.75,262.2969 L618.75,255.6406 L617.0313,255.6406 Q616.4219,255.6406 616.1563,255.4063 Q615.8906,255.1719 615.8906,254.7813 Q615.8906,254.4063 616.1563,254.1719 Q616.4219,253.9375 617.0313,253.9375 L622.1719,253.9375 Q622.7813,253.9375 623.0469,254.1719 Q623.3125,254.4063 623.3125,254.7813 Q623.3125,255.1719 623.0469,255.4063 Q622.7813,255.6406 622.1719,255.6406 L620.4531,255.6406 Z " fill="#000000"/><text fill="#000000" font-family="sans-serif" font-size="12" font-style="italic" lengthAdjust="spacing" textLength="69" x="633.5" y="263.9102">IMemoryLog</text><line style="stroke:#A80036;stroke-width:1.5;" x1="605.5" x2="704.5" y1="275" y2="275"/><line style="stroke:#A80036;stroke-width:1.5;" x1="605.5" x2="704.5" y1="283" y2="283"/><!--MD5=[0c389c84cd34db8c1f2c73d9d3fee3f0]
class ICrashDataExport--><rect codeLine="9" fill="#FEFECE" filter="url(#f10i2pz4vastdj)" height="48" id="ICrashDataExport" style="stroke:#A80036;stroke-width:1.5;" width="130" x="237" y="371"/><ellipse cx="252" cy="387" fill="#B4A7E5" rx="11" ry="11" style="stroke:#A80036;stroke-width:1.0;"/><path d="M252.9531,383.6406 L252.9531,390.2969 L254.6719,390.2969 Q255.2813,390.2969 255.5469,390.5313 Q255.8125,390.7656 255.8125,391.1563 Q255.8125,391.5313 255.5469,391.7656 Q255.2813,392 254.6719,392 L249.5313,392 Q248.9219,392 248.6563,391.7656 Q248.3906,391.5313 248.3906,391.1406 Q248.3906,390.7656 248.6563,390.5313 Q248.9219,390.2969 249.5313,390.2969 L251.25,390.2969 L251.25,383.6406 L249.5313,383.6406 Q248.9219,383.6406 248.6563,383.4063 Q248.3906,383.1719 248.3906,382.7813 Q248.3906,382.4063 248.6563,382.1719 Q248.9219,381.9375 249.5313,381.9375 L254.6719,381.9375 Q255.2813,381.9375 255.5469,382.1719 Q255.8125,382.4063 255.8125,382.7813 Q255.8125,383.1719 255.5469,383.4063 Q255.2813,383.6406 254.6719,383.6406 L252.9531,383.6406 Z " fill="#000000"/><text fill="#000000" font-family="sans-serif" font-size="12" font-style="italic" lengthAdjust="spacing" textLength="98" x="266" y="391.9102">ICrashDataExport</text><line style="stroke:#A80036;stroke-width:1.5;" x1="238" x2="366" y1="403" y2="403"/><line style="stroke:#A80036;stroke-width:1.5;" x1="238" x2="366" y1="411" y2="411"/><!--MD5=[cb32f8b1b756f5d42df70837c47813f1]
class LogEntry--><rect codeLine="10" fill="#FEFECE" filter="url(#f10i2pz4vastdj)" height="48" id="LogEntry" style="stroke:#A80036;stroke-width:1.5;" width="80" x="760" y="371"/><ellipse cx="775" cy="387" fill="#ADD1B2" rx="11" ry="11" style="stroke:#A80036;stroke-width:1.0;"/><path d="M777.7656,382.875 Q777.9219,382.6563 778.1094,382.5469 Q778.2969,382.4375 778.5156,382.4375 Q778.8906,382.4375 779.125,382.6953 Q779.3594,382.9531 779.3594,383.5625 L779.3594,385.0156 Q779.3594,385.625 779.125,385.8906 Q778.8906,386.1563 778.5156,386.1563 Q778.1719,386.1563 777.9688,385.9531 Q777.7656,385.7656 777.6563,385.25 Q777.6094,384.8906 777.4219,384.7031 Q777.0938,384.3281 776.4844,384.1094 Q775.875,383.8906 775.25,383.8906 Q774.4844,383.8906 773.8516,384.2188 Q773.2188,384.5469 772.7266,385.2969 Q772.2344,386.0469 772.2344,387.0781 L772.2344,388.1719 Q772.2344,389.4063 773.125,390.2266 Q774.0156,391.0469 775.6094,391.0469 Q776.5469,391.0469 777.2031,390.7969 Q777.5938,390.6406 778.0156,390.2031 Q778.2813,389.9375 778.4297,389.8594 Q778.5781,389.7813 778.7813,389.7813 Q779.1094,389.7813 779.3672,390.0391 Q779.625,390.2969 779.625,390.6406 Q779.625,390.9844 779.2813,391.3906 Q778.7813,391.9688 777.9844,392.2969 Q776.9063,392.75 775.6094,392.75 Q774.0938,392.75 772.8906,392.125 Q771.9063,391.625 771.2188,390.5547 Q770.5313,389.4844 770.5313,388.2031 L770.5313,387.0469 Q770.5313,385.7188 771.1484,384.5703 Q771.7656,383.4219 772.8594,382.8047 Q773.9531,382.1875 775.1875,382.1875 Q775.9219,382.1875 776.5703,382.3516 Q777.2188,382.5156 777.7656,382.875 Z " fill="#000000"/><text fill="#000000" font-family="sans-serif" font-size="12" lengthAdjust="spacing" textLength="48" x="789" y="391.9102">LogEntry</text><line style="stroke:#A80036;stroke-width:1.5;" x1="761" x2="839" y1="403" y2="403"/><line style="stroke:#A80036;stroke-width:1.5;" x1="761" x2="839" y1="411" y2="411"/><!--MD5=[9832564ccee851fc9bf8c8d65a9a034d]
class SimplePrioMemoryTraceListener--><rect codeLine="11" fill="#FEFECE" filter="url(#f10i2pz4vastdj)" height="48" id="SimplePrioMemoryTraceListener" style="stroke:#A80036;stroke-width:1.5;" width="212" x="357" y="243"/><ellipse cx="372" cy="259" fill="#ADD1B2" rx="11" ry="11" style="stroke:#A80036;stroke-width:1.0;"/><path d="M374.7656,254.875 Q374.9219,254.6563 375.1094,254.5469 Q375.2969,254.4375 375.5156,254.4375 Q375.8906,254.4375 376.125,254.6953 Q376.3594,254.9531 376.3594,255.5625 L376.3594,257.0156 Q376.3594,257.625 376.125,257.8906 Q375.8906,258.1563 375.5156,258.1563 Q375.1719,258.1563 374.9688,257.9531 Q374.7656,257.7656 374.6563,257.25 Q374.6094,256.8906 374.4219,256.7031 Q374.0938,256.3281 373.4844,256.1094 Q372.875,255.8906 372.25,255.8906 Q371.4844,255.8906 370.8516,256.2188 Q370.2188,256.5469 369.7266,257.2969 Q369.2344,258.0469 369.2344,259.0781 L369.2344,260.1719 Q369.2344,261.4063 370.125,262.2266 Q371.0156,263.0469 372.6094,263.0469 Q373.5469,263.0469 374.2031,262.7969 Q374.5938,262.6406 375.0156,262.2031 Q375.2813,261.9375 375.4297,261.8594 Q375.5781,261.7813 375.7813,261.7813 Q376.1094,261.7813 376.3672,262.0391 Q376.625,262.2969 376.625,262.6406 Q376.625,262.9844 376.2813,263.3906 Q375.7813,263.9688 374.9844,264.2969 Q373.9063,264.75 372.6094,264.75 Q371.0938,264.75 369.8906,264.125 Q368.9063,263.625 368.2188,262.5547 Q367.5313,261.4844 367.5313,260.2031 L367.5313,259.0469 Q367.5313,257.7188 368.1484,256.5703 Q368.7656,255.4219 369.8594,254.8047 Q370.9531,254.1875 372.1875,254.1875 Q372.9219,254.1875 373.5703,254.3516 Q374.2188,254.5156 374.7656,254.875 Z " fill="#000000"/><text fill="#000000" font-family="sans-serif" font-size="12" lengthAdjust="spacing" textLength="180" x="386" y="263.9102">SimplePrioMemoryTraceListener</text><line style="stroke:#A80036;stroke-width:1.5;" x1="358" x2="568" y1="275" y2="275"/><line style="stroke:#A80036;stroke-width:1.5;" x1="358" x2="568" y1="283" y2="283"/><!--MD5=[138ca3b414e559eddacb311773beadb2]
class SimplePrioMemoryLog--><rect codeLine="12" fill="#FEFECE" filter="url(#f10i2pz4vastdj)" height="48" id="SimplePrioMemoryLog" style="stroke:#A80036;stroke-width:1.5;" width="157" x="567.5" y="371"/><ellipse cx="582.5" cy="387" fill="#ADD1B2" rx="11" ry="11" style="stroke:#A80036;stroke-width:1.0;"/><path d="M585.2656,382.875 Q585.4219,382.6563 585.6094,382.5469 Q585.7969,382.4375 586.0156,382.4375 Q586.3906,382.4375 586.625,382.6953 Q586.8594,382.9531 586.8594,383.5625 L586.8594,385.0156 Q586.8594,385.625 586.625,385.8906 Q586.3906,386.1563 586.0156,386.1563 Q585.6719,386.1563 585.4688,385.9531 Q585.2656,385.7656 585.1563,385.25 Q585.1094,384.8906 584.9219,384.7031 Q584.5938,384.3281 583.9844,384.1094 Q583.375,383.8906 582.75,383.8906 Q581.9844,383.8906 581.3516,384.2188 Q580.7188,384.5469 580.2266,385.2969 Q579.7344,386.0469 579.7344,387.0781 L579.7344,388.1719 Q579.7344,389.4063 580.625,390.2266 Q581.5156,391.0469 583.1094,391.0469 Q584.0469,391.0469 584.7031,390.7969 Q585.0938,390.6406 585.5156,390.2031 Q585.7813,389.9375 585.9297,389.8594 Q586.0781,389.7813 586.2813,389.7813 Q586.6094,389.7813 586.8672,390.0391 Q587.125,390.2969 587.125,390.6406 Q587.125,390.9844 586.7813,391.3906 Q586.2813,391.9688 585.4844,392.2969 Q584.4063,392.75 583.1094,392.75 Q581.5938,392.75 580.3906,392.125 Q579.4063,391.625 578.7188,390.5547 Q578.0313,389.4844 578.0313,388.2031 L578.0313,387.0469 Q578.0313,385.7188 578.6484,384.5703 Q579.2656,383.4219 580.3594,382.8047 Q581.4531,382.1875 582.6875,382.1875 Q583.4219,382.1875 584.0703,382.3516 Q584.7188,382.5156 585.2656,382.875 Z " fill="#000000"/><text fill="#000000" font-family="sans-serif" font-size="12" lengthAdjust="spacing" textLength="125" x="596.5" y="391.9102">SimplePrioMemoryLog</text><line style="stroke:#A80036;stroke-width:1.5;" x1="568.5" x2="723.5" y1="403" y2="403"/><line style="stroke:#A80036;stroke-width:1.5;" x1="568.5" x2="723.5" y1="411" y2="411"/><!--MD5=[fc73f92fa5762704aa6071aaa8447056]
class MemoryTraceListener--><rect codeLine="13" fill="#FEFECE" filter="url(#f10i2pz4vastdj)" height="48" id="MemoryTraceListener" style="stroke:#A80036;stroke-width:1.5;" width="151" x="249.5" y="132"/><ellipse cx="264.5" cy="148" fill="#ADD1B2" rx="11" ry="11" style="stroke:#A80036;stroke-width:1.0;"/><path d="M267.2656,143.875 Q267.4219,143.6563 267.6094,143.5469 Q267.7969,143.4375 268.0156,143.4375 Q268.3906,143.4375 268.625,143.6953 Q268.8594,143.9531 268.8594,144.5625 L268.8594,146.0156 Q268.8594,146.625 268.625,146.8906 Q268.3906,147.1563 268.0156,147.1563 Q267.6719,147.1563 267.4688,146.9531 Q267.2656,146.7656 267.1563,146.25 Q267.1094,145.8906 266.9219,145.7031 Q266.5938,145.3281 265.9844,145.1094 Q265.375,144.8906 264.75,144.8906 Q263.9844,144.8906 263.3516,145.2188 Q262.7188,145.5469 262.2266,146.2969 Q261.7344,147.0469 261.7344,148.0781 L261.7344,149.1719 Q261.7344,150.4063 262.625,151.2266 Q263.5156,152.0469 265.1094,152.0469 Q266.0469,152.0469 266.7031,151.7969 Q267.0938,151.6406 267.5156,151.2031 Q267.7813,150.9375 267.9297,150.8594 Q268.0781,150.7813 268.2813,150.7813 Q268.6094,150.7813 268.8672,151.0391 Q269.125,151.2969 269.125,151.6406 Q269.125,151.9844 268.7813,152.3906 Q268.2813,152.9688 267.4844,153.2969 Q266.4063,153.75 265.1094,153.75 Q263.5938,153.75 262.3906,153.125 Q261.4063,152.625 260.7188,151.5547 Q260.0313,150.4844 260.0313,149.2031 L260.0313,148.0469 Q260.0313,146.7188 260.6484,145.5703 Q261.2656,144.4219 262.3594,143.8047 Q263.4531,143.1875 264.6875,143.1875 Q265.4219,143.1875 266.0703,143.3516 Q266.7188,143.5156 267.2656,143.875 Z " fill="#000000"/><text fill="#000000" font-family="sans-serif" font-size="12" lengthAdjust="spacing" textLength="119" x="278.5" y="152.9102">MemoryTraceListener</text><line style="stroke:#A80036;stroke-width:1.5;" x1="250.5" x2="399.5" y1="164" y2="164"/><line style="stroke:#A80036;stroke-width:1.5;" x1="250.5" x2="399.5" y1="172" y2="172"/><!--MD5=[903d9d877d16d707cf3f6f34ddf51e3e]
class TraceListener--><rect codeLine="14" fill="#FEFECE" filter="url(#f10i2pz4vastdj)" height="48" id="TraceListener" style="stroke:#A80036;stroke-width:1.5;" width="108" x="271" y="23"/><ellipse cx="286" cy="39" fill="#ADD1B2" rx="11" ry="11" style="stroke:#A80036;stroke-width:1.0;"/><path d="M288.7656,34.875 Q288.9219,34.6563 289.1094,34.5469 Q289.2969,34.4375 289.5156,34.4375 Q289.8906,34.4375 290.125,34.6953 Q290.3594,34.9531 290.3594,35.5625 L290.3594,37.0156 Q290.3594,37.625 290.125,37.8906 Q289.8906,38.1563 289.5156,38.1563 Q289.1719,38.1563 288.9688,37.9531 Q288.7656,37.7656 288.6563,37.25 Q288.6094,36.8906 288.4219,36.7031 Q288.0938,36.3281 287.4844,36.1094 Q286.875,35.8906 286.25,35.8906 Q285.4844,35.8906 284.8516,36.2188 Q284.2188,36.5469 283.7266,37.2969 Q283.2344,38.0469 283.2344,39.0781 L283.2344,40.1719 Q283.2344,41.4063 284.125,42.2266 Q285.0156,43.0469 286.6094,43.0469 Q287.5469,43.0469 288.2031,42.7969 Q288.5938,42.6406 289.0156,42.2031 Q289.2813,41.9375 289.4297,41.8594 Q289.5781,41.7813 289.7813,41.7813 Q290.1094,41.7813 290.3672,42.0391 Q290.625,42.2969 290.625,42.6406 Q290.625,42.9844 290.2813,43.3906 Q289.7813,43.9688 288.9844,44.2969 Q287.9063,44.75 286.6094,44.75 Q285.0938,44.75 283.8906,44.125 Q282.9063,43.625 282.2188,42.5547 Q281.5313,41.4844 281.5313,40.2031 L281.5313,39.0469 Q281.5313,37.7188 282.1484,36.5703 Q282.7656,35.4219 283.8594,34.8047 Q284.9531,34.1875 286.1875,34.1875 Q286.9219,34.1875 287.5703,34.3516 Q288.2188,34.5156 288.7656,34.875 Z " fill="#000000"/><text fill="#000000" font-family="sans-serif" font-size="12" lengthAdjust="spacing" textLength="76" x="300" y="43.9102">TraceListener</text><line style="stroke:#A80036;stroke-width:1.5;" x1="272" x2="378" y1="55" y2="55"/><line style="stroke:#A80036;stroke-width:1.5;" x1="272" x2="378" y1="63" y2="63"/><!--MD5=[ce2c656f3b056b09e1a3f0508b9a740c]
class MemoryLogDump--><rect codeLine="15" fill="#FEFECE" filter="url(#f10i2pz4vastdj)" height="48" id="MemoryLogDump" style="stroke:#A80036;stroke-width:1.5;" width="130" x="402" y="371"/><ellipse cx="417" cy="387" fill="#ADD1B2" rx="11" ry="11" style="stroke:#A80036;stroke-width:1.0;"/><path d="M419.7656,382.875 Q419.9219,382.6563 420.1094,382.5469 Q420.2969,382.4375 420.5156,382.4375 Q420.8906,382.4375 421.125,382.6953 Q421.3594,382.9531 421.3594,383.5625 L421.3594,385.0156 Q421.3594,385.625 421.125,385.8906 Q420.8906,386.1563 420.5156,386.1563 Q420.1719,386.1563 419.9688,385.9531 Q419.7656,385.7656 419.6563,385.25 Q419.6094,384.8906 419.4219,384.7031 Q419.0938,384.3281 418.4844,384.1094 Q417.875,383.8906 417.25,383.8906 Q416.4844,383.8906 415.8516,384.2188 Q415.2188,384.5469 414.7266,385.2969 Q414.2344,386.0469 414.2344,387.0781 L414.2344,388.1719 Q414.2344,389.4063 415.125,390.2266 Q416.0156,391.0469 417.6094,391.0469 Q418.5469,391.0469 419.2031,390.7969 Q419.5938,390.6406 420.0156,390.2031 Q420.2813,389.9375 420.4297,389.8594 Q420.5781,389.7813 420.7813,389.7813 Q421.1094,389.7813 421.3672,390.0391 Q421.625,390.2969 421.625,390.6406 Q421.625,390.9844 421.2813,391.3906 Q420.7813,391.9688 419.9844,392.2969 Q418.9063,392.75 417.6094,392.75 Q416.0938,392.75 414.8906,392.125 Q413.9063,391.625 413.2188,390.5547 Q412.5313,389.4844 412.5313,388.2031 L412.5313,387.0469 Q412.5313,385.7188 413.1484,384.5703 Q413.7656,383.4219 414.8594,382.8047 Q415.9531,382.1875 417.1875,382.1875 Q417.9219,382.1875 418.5703,382.3516 Q419.2188,382.5156 419.7656,382.875 Z " fill="#000000"/><text fill="#000000" font-family="sans-serif" font-size="12" lengthAdjust="spacing" textLength="98" x="431" y="391.9102">MemoryLogDump</text><line style="stroke:#A80036;stroke-width:1.5;" x1="403" x2="531" y1="403" y2="403"/><line style="stroke:#A80036;stroke-width:1.5;" x1="403" x2="531" y1="411" y2="411"/><!--MD5=[4bf124702e26e8742700d64b46e56cfa]
class Crash--><rect codeLine="16" fill="#FEFECE" filter="url(#f10i2pz4vastdj)" height="48" id="Crash" style="stroke:#A80036;stroke-width:1.5;" width="66" x="200" y="497"/><ellipse cx="215" cy="513" fill="#ADD1B2" rx="11" ry="11" style="stroke:#A80036;stroke-width:1.0;"/><path d="M217.7656,508.875 Q217.9219,508.6563 218.1094,508.5469 Q218.2969,508.4375 218.5156,508.4375 Q218.8906,508.4375 219.125,508.6953 Q219.3594,508.9531 219.3594,509.5625 L219.3594,511.0156 Q219.3594,511.625 219.125,511.8906 Q218.8906,512.1563 218.5156,512.1563 Q218.1719,512.1563 217.9688,511.9531 Q217.7656,511.7656 217.6563,511.25 Q217.6094,510.8906 217.4219,510.7031 Q217.0938,510.3281 216.4844,510.1094 Q215.875,509.8906 215.25,509.8906 Q214.4844,509.8906 213.8516,510.2188 Q213.2188,510.5469 212.7266,511.2969 Q212.2344,512.0469 212.2344,513.0781 L212.2344,514.1719 Q212.2344,515.4063 213.125,516.2266 Q214.0156,517.0469 215.6094,517.0469 Q216.5469,517.0469 217.2031,516.7969 Q217.5938,516.6406 218.0156,516.2031 Q218.2813,515.9375 218.4297,515.8594 Q218.5781,515.7813 218.7813,515.7813 Q219.1094,515.7813 219.3672,516.0391 Q219.625,516.2969 219.625,516.6406 Q219.625,516.9844 219.2813,517.3906 Q218.7813,517.9688 217.9844,518.2969 Q216.9063,518.75 215.6094,518.75 Q214.0938,518.75 212.8906,518.125 Q211.9063,517.625 211.2188,516.5547 Q210.5313,515.4844 210.5313,514.2031 L210.5313,513.0469 Q210.5313,511.7188 211.1484,510.5703 Q211.7656,509.4219 212.8594,508.8047 Q213.9531,508.1875 215.1875,508.1875 Q215.9219,508.1875 216.5703,508.3516 Q217.2188,508.5156 217.7656,508.875 Z " fill="#000000"/><text fill="#000000" font-family="sans-serif" font-size="12" lengthAdjust="spacing" textLength="34" x="229" y="517.9102">Crash</text><line style="stroke:#A80036;stroke-width:1.5;" x1="201" x2="265" y1="529" y2="529"/><line style="stroke:#A80036;stroke-width:1.5;" x1="201" x2="265" y1="537" y2="537"/><!--MD5=[0e9aefb7ba2018fb7b176a5bf67b4a1c]
reverse link ICollection to IMemoryLog--><path codeLine="18" d="M655,200.17 C655,214.77 655,230.5 655,242.92 " fill="none" id="ICollection-backto-IMemoryLog" style="stroke:#A80036;stroke-width:1.0;stroke-dasharray:7.0,7.0;"/><polygon fill="none" points="648,200.12,655,180.12,662,200.12,648,200.12" style="stroke:#A80036;stroke-width:1.0;"/><!--MD5=[4c9f98bddb4f3059eff4aa0405a39bba]
reverse link IMemoryLog to SimplePrioMemoryLog--><path codeLine="19" d="M651.92,311.14 C650.5,331.07 648.86,353.95 647.67,370.61 " fill="none" id="IMemoryLog-backto-SimplePrioMemoryLog" style="stroke:#A80036;stroke-width:1.0;stroke-dasharray:7.0,7.0;"/><polygon fill="none" points="644.94,310.56,653.35,291.11,658.91,311.56,644.94,310.56" style="stroke:#A80036;stroke-width:1.0;"/><!--MD5=[ffc53138d3460f6aebcd6732d6975b3f]
reverse link SimplePrioMemoryLog to LogEntry--><path codeLine="20" d="M737.77,395 C745.15,395 752.52,395 759.89,395 " fill="none" id="SimplePrioMemoryLog-backto-LogEntry" style="stroke:#A80036;stroke-width:1.0;"/><polygon fill="#A80036" points="724.5,395,730.5,399,736.5,395,730.5,391,724.5,395" style="stroke:#A80036;stroke-width:1.0;"/><text fill="#000000" font-family="sans-serif" font-size="13" lengthAdjust="spacing" textLength="7" x="732.5719" y="391.7249">1</text><text fill="#000000" font-family="sans-serif" font-size="13" lengthAdjust="spacing" textLength="5" x="747.0338" y="391.0525">*</text><!--MD5=[43f1ed5a7e4116ce5c7a2d59859c4f7c]
reverse link MemoryTraceListener to SimplePrioMemoryTraceListener--><path codeLine="21" d="M370.15,192.66 C391.06,209.18 415.31,228.33 433.78,242.92 " fill="none" id="MemoryTraceListener-backto-SimplePrioMemoryTraceListener" style="stroke:#A80036;stroke-width:1.0;"/><polygon fill="none" points="365.62,198.01,354.27,180.12,374.3,187.02,365.62,198.01" style="stroke:#A80036;stroke-width:1.0;"/><!--MD5=[9fb51d5a3db6a48c35a7f8573745df63]
reverse link SimplePrioMemoryTraceListener to SimplePrioMemoryLog--><path codeLine="22" d="M507.51,298.64 C539.82,320.89 582.86,350.53 612.34,370.82 " fill="none" id="SimplePrioMemoryTraceListener-backto-SimplePrioMemoryLog" style="stroke:#A80036;stroke-width:1.0;"/><polygon fill="#A80036" points="496.57,291.11,499.2417,297.8079,506.452,297.9179,503.7803,291.2199,496.57,291.11" style="stroke:#A80036;stroke-width:1.0;"/><!--MD5=[e3cde9e480167dea0714077e6c347098]
reverse link TraceListener to MemoryTraceListener--><path codeLine="23" d="M325,91.58 C325,105.36 325,120.06 325,131.83 " fill="none" id="TraceListener-backto-MemoryTraceListener" style="stroke:#A80036;stroke-width:1.0;"/><polygon fill="none" points="318,91.22,325,71.22,332,91.22,318,91.22" style="stroke:#A80036;stroke-width:1.0;"/><!--MD5=[0a8c1cd138b125e1f6aaa3ae074a0b38]
reverse link SimplePrioMemoryTraceListener to MemoryLogDump--><path codeLine="24" d="M464.15,304.28 C464.83,325.63 465.67,352 466.26,370.61 " fill="none" id="SimplePrioMemoryTraceListener-backto-MemoryLogDump" style="stroke:#A80036;stroke-width:1.0;"/><polygon fill="#A80036" points="463.73,291.11,459.9234,297.2345,464.1126,303.1039,467.9193,296.9794,463.73,291.11" style="stroke:#A80036;stroke-width:1.0;"/><!--MD5=[3019f3e816958922e1810d13b5b849d6]
reverse link MemoryLogDump to SimplePrioMemoryLog--><path codeLine="25" d="M545.22,395 C552.54,395 559.87,395 567.2,395 " fill="none" id="MemoryLogDump-backto-SimplePrioMemoryLog" style="stroke:#A80036;stroke-width:1.0;"/><polygon fill="#FFFFFF" points="532.03,395,538.03,399,544.03,395,538.03,391,532.03,395" style="stroke:#A80036;stroke-width:1.0;"/><!--MD5=[b294174c2422233b8dbb0dbed11670a7]
reverse link ICrashDataExport to MemoryLogDump--><path codeLine="26" d="M387.18,395 C392.06,395 396.95,395 401.83,395 " fill="none" id="ICrashDataExport-backto-MemoryLogDump" style="stroke:#A80036;stroke-width:1.0;stroke-dasharray:7.0,7.0;"/><polygon fill="none" points="387.1,402,367.1,395,387.1,388,387.1,402" style="stroke:#A80036;stroke-width:1.0;"/><!--MD5=[c3031b4f2e31ae67486d2f95ebc72b83]
reverse link MemoryLogDump to Crash--><path codeLine="27" d="M418.91,421.48 C373.28,445.67 305.91,481.36 266.04,502.49 " fill="none" id="MemoryLogDump-backto-Crash" style="stroke:#A80036;stroke-width:1.0;stroke-dasharray:7.0,7.0;"/><polygon fill="#A80036" points="423.53,419.03,413.7051,419.7161,419.1135,421.374,417.4555,426.7825,423.53,419.03" style="stroke:#A80036;stroke-width:1.0;"/><text fill="#000000" font-family="sans-serif" font-size="13" lengthAdjust="spacing" textLength="74" x="365" y="463.4951">«references»</text><!--MD5=[43e478ebce73ee249dbe0fcfed962050]
link MemoryTraceListener to Crash--><path codeLine="28" d="M309.24,180.04 C284.44,217.88 237.31,296.42 220,371 C210.4,412.37 218.37,461.69 225.38,491.92 " fill="none" id="MemoryTraceListener-to-Crash" style="stroke:#A80036;stroke-width:1.0;stroke-dasharray:7.0,7.0;"/><polygon fill="#A80036" points="226.58,496.97,228.3918,487.2892,225.4245,492.1054,220.6083,489.1381,226.58,496.97" style="stroke:#A80036;stroke-width:1.0;"/><text fill="#000000" font-family="sans-serif" font-size="13" lengthAdjust="spacing" textLength="64" x="235" y="337.4951">«registers»</text><!--MD5=[1b94ceaa41eb1a69ebabb6528c3e9cea]
link UserApp to SimplePrioMemoryTraceListener--><path codeLine="31" d="M103.18,267 C160.66,267 268.54,267 351.24,267 " fill="none" id="UserApp-to-SimplePrioMemoryTraceListener" style="stroke:#A80036;stroke-width:1.0;"/><polygon fill="#A80036" points="356.65,267,347.65,263,351.65,267,347.65,271,356.65,267" style="stroke:#A80036;stroke-width:1.0;"/><text fill="#000000" font-family="sans-serif" font-size="13" lengthAdjust="spacing" textLength="53" x="203.5" y="260.4951">«logs to»</text><!--MD5=[d01774c87d081959dea5243fb52fa865]
link UserApp to Crash--><path codeLine="32" d="M61.9,291.17 C61.5,322.59 64.78,379.34 90,419 C115.11,458.48 161.72,487 194.9,503.46 " fill="none" id="UserApp-to-Crash" style="stroke:#A80036;stroke-width:1.0;"/><polygon fill="#A80036" points="199.7,505.81,193.3615,498.2719,195.2052,503.6199,189.8572,505.4636,199.7,505.81" style="stroke:#A80036;stroke-width:1.0;"/><text fill="#000000" font-family="sans-serif" font-size="13" lengthAdjust="spacing" textLength="100" x="91" y="400.4951">«requests dump»</text><!--MD5=[e854b0cde99d08aeec1c3176abdf3fb0]
@startuml RJCP.Diagnostics.Trace

rectangle {
    class UserApp #ffdd33
}

rectangle {
    interface ICollection<LogEntry>
    interface IMemoryLog
    interface ICrashDataExport
    class LogEntry
    class SimplePrioMemoryTraceListener
    class SimplePrioMemoryLog
    class MemoryTraceListener
    class TraceListener
    class MemoryLogDump
    class Crash

    IMemoryLog .u.|> ICollection
    SimplePrioMemoryLog .u.|> IMemoryLog
    SimplePrioMemoryLog "1" *-r- "*" LogEntry
    SimplePrioMemoryTraceListener -u-|> MemoryTraceListener
    SimplePrioMemoryTraceListener *-r- SimplePrioMemoryLog
    MemoryTraceListener -u-|> TraceListener
    SimplePrioMemoryTraceListener *-d- MemoryLogDump
    MemoryLogDump o-r- SimplePrioMemoryLog
    MemoryLogDump .l.|> ICrashDataExport
    Crash .u.> MemoryLogDump : <<references>>
    MemoryTraceListener .d.> Crash : <<registers>>
}

UserApp -r-> SimplePrioMemoryTraceListener : <<logs to>>
UserApp -d-> Crash : <<requests dump>>
@enduml

PlantUML version 1.2022.0(Tue Jan 11 17:16:42 CET 2022)
(GPL source distribution)
Java Runtime: Java(TM) SE Runtime Environment
JVM: Java HotSpot(TM) Client VM
Default Encoding: Cp1252
Language: en
Country: US
--></g></svg>