<?xml version="1.0" encoding="UTF-8" standalone="no"?><svg xmlns="http://www.w3.org/2000/svg" xmlns:xlink="http://www.w3.org/1999/xlink" contentScriptType="application/ecmascript" contentStyleType="text/css" height="505px" preserveAspectRatio="none" style="width:795px;height:505px;background:#FFFFFF;" version="1.1" viewBox="0 0 795 505" width="795px" zoomAndPan="magnify"><defs><filter height="300%" id="f1blgm6rv70o23" width="300%" x="-1" y="-1"><feGaussianBlur result="blurOut" stdDeviation="2.0"/><feColorMatrix in="blurOut" result="blurOut2" type="matrix" values="0 0 0 0 0 0 0 0 0 0 0 0 0 0 0 0 0 0 .4 0"/><feOffset dx="4.0" dy="4.0" in="blurOut2" result="blurOut3"/><feBlend in="SourceGraphic" in2="blurOut3" mode="normal"/></filter></defs><g><rect fill="#FFFFFF" filter="url(#f1blgm6rv70o23)" height="80" style="stroke:#000000;stroke-width:1.5;" width="112" x="7" y="21"/><rect fill="#FFFFFF" filter="url(#f1blgm6rv70o23)" height="486" style="stroke:#000000;stroke-width:1.5;" width="640" x="143" y="7"/><!--MD5=[ed03d9e1dcf386a6ed6959a81bc2feba]
class UserApp--><rect codeLine="3" fill="#FFDD33" filter="url(#f1blgm6rv70o23)" height="48" id="UserApp" style="stroke:#A80036;stroke-width:1.5;" width="80" x="23" y="37"/><ellipse cx="38" cy="53" fill="#ADD1B2" rx="11" ry="11" style="stroke:#A80036;stroke-width:1.0;"/><path d="M40.7656,48.875 Q40.9219,48.6563 41.1094,48.5469 Q41.2969,48.4375 41.5156,48.4375 Q41.8906,48.4375 42.125,48.6953 Q42.3594,48.9531 42.3594,49.5625 L42.3594,51.0156 Q42.3594,51.625 42.125,51.8906 Q41.8906,52.1563 41.5156,52.1563 Q41.1719,52.1563 40.9688,51.9531 Q40.7656,51.7656 40.6563,51.25 Q40.6094,50.8906 40.4219,50.7031 Q40.0938,50.3281 39.4844,50.1094 Q38.875,49.8906 38.25,49.8906 Q37.4844,49.8906 36.8516,50.2188 Q36.2188,50.5469 35.7266,51.2969 Q35.2344,52.0469 35.2344,53.0781 L35.2344,54.1719 Q35.2344,55.4063 36.125,56.2266 Q37.0156,57.0469 38.6094,57.0469 Q39.5469,57.0469 40.2031,56.7969 Q40.5938,56.6406 41.0156,56.2031 Q41.2813,55.9375 41.4297,55.8594 Q41.5781,55.7813 41.7813,55.7813 Q42.1094,55.7813 42.3672,56.0391 Q42.625,56.2969 42.625,56.6406 Q42.625,56.9844 42.2813,57.3906 Q41.7813,57.9688 40.9844,58.2969 Q39.9063,58.75 38.6094,58.75 Q37.0938,58.75 35.8906,58.125 Q34.9063,57.625 34.2188,56.5547 Q33.5313,55.4844 33.5313,54.2031 L33.5313,53.0469 Q33.5313,51.7188 34.1484,50.5703 Q34.7656,49.4219 35.8594,48.8047 Q36.9531,48.1875 38.1875,48.1875 Q38.9219,48.1875 39.5703,48.3516 Q40.2188,48.5156 40.7656,48.875 Z " fill="#000000"/><text fill="#000000" font-family="sans-serif" font-size="12" lengthAdjust="spacing" textLength="48" x="52" y="57.9102">UserApp</text><line style="stroke:#A80036;stroke-width:1.5;" x1="24" x2="102" y1="69" y2="69"/><line style="stroke:#A80036;stroke-width:1.5;" x1="24" x2="102" y1="77" y2="77"/><!--MD5=[9c3f40dd4d806dc4ecc502a287ec37eb]
class ILogger--><rect codeLine="7" fill="#FEFECE" filter="url(#f1blgm6rv70o23)" height="48" id="ILogger" style="stroke:#A80036;stroke-width:1.5;" width="75" x="222.5" y="177"/><ellipse cx="237.5" cy="193" fill="#B4A7E5" rx="11" ry="11" style="stroke:#A80036;stroke-width:1.0;"/><path d="M238.4531,189.6406 L238.4531,196.2969 L240.1719,196.2969 Q240.7813,196.2969 241.0469,196.5313 Q241.3125,196.7656 241.3125,197.1563 Q241.3125,197.5313 241.0469,197.7656 Q240.7813,198 240.1719,198 L235.0313,198 Q234.4219,198 234.1563,197.7656 Q233.8906,197.5313 233.8906,197.1406 Q233.8906,196.7656 234.1563,196.5313 Q234.4219,196.2969 235.0313,196.2969 L236.75,196.2969 L236.75,189.6406 L235.0313,189.6406 Q234.4219,189.6406 234.1563,189.4063 Q233.8906,189.1719 233.8906,188.7813 Q233.8906,188.4063 234.1563,188.1719 Q234.4219,187.9375 235.0313,187.9375 L240.1719,187.9375 Q240.7813,187.9375 241.0469,188.1719 Q241.3125,188.4063 241.3125,188.7813 Q241.3125,189.1719 241.0469,189.4063 Q240.7813,189.6406 240.1719,189.6406 L238.4531,189.6406 Z " fill="#000000"/><text fill="#000000" font-family="sans-serif" font-size="12" font-style="italic" lengthAdjust="spacing" textLength="43" x="251.5" y="197.9102">ILogger</text><line style="stroke:#A80036;stroke-width:1.5;" x1="223.5" x2="296.5" y1="209" y2="209"/><line style="stroke:#A80036;stroke-width:1.5;" x1="223.5" x2="296.5" y1="217" y2="217"/><!--MD5=[fff81868194564e01035390403ecccd6]
class MemoryLoggerExtensions--><rect codeLine="8" fill="#FEFECE" filter="url(#f1blgm6rv70o23)" height="75.6719" id="MemoryLoggerExtensions" style="stroke:#A80036;stroke-width:1.5;" width="403" x="232.5" y="23"/><ellipse cx="358.25" cy="39" fill="#ADD1B2" rx="11" ry="11" style="stroke:#A80036;stroke-width:1.0;"/><path d="M361.0156,34.875 Q361.1719,34.6563 361.3594,34.5469 Q361.5469,34.4375 361.7656,34.4375 Q362.1406,34.4375 362.375,34.6953 Q362.6094,34.9531 362.6094,35.5625 L362.6094,37.0156 Q362.6094,37.625 362.375,37.8906 Q362.1406,38.1563 361.7656,38.1563 Q361.4219,38.1563 361.2188,37.9531 Q361.0156,37.7656 360.9063,37.25 Q360.8594,36.8906 360.6719,36.7031 Q360.3438,36.3281 359.7344,36.1094 Q359.125,35.8906 358.5,35.8906 Q357.7344,35.8906 357.1016,36.2188 Q356.4688,36.5469 355.9766,37.2969 Q355.4844,38.0469 355.4844,39.0781 L355.4844,40.1719 Q355.4844,41.4063 356.375,42.2266 Q357.2656,43.0469 358.8594,43.0469 Q359.7969,43.0469 360.4531,42.7969 Q360.8438,42.6406 361.2656,42.2031 Q361.5313,41.9375 361.6797,41.8594 Q361.8281,41.7813 362.0313,41.7813 Q362.3594,41.7813 362.6172,42.0391 Q362.875,42.2969 362.875,42.6406 Q362.875,42.9844 362.5313,43.3906 Q362.0313,43.9688 361.2344,44.2969 Q360.1563,44.75 358.8594,44.75 Q357.3438,44.75 356.1406,44.125 Q355.1563,43.625 354.4688,42.5547 Q353.7813,41.4844 353.7813,40.2031 L353.7813,39.0469 Q353.7813,37.7188 354.3984,36.5703 Q355.0156,35.4219 356.1094,34.8047 Q357.2031,34.1875 358.4375,34.1875 Q359.1719,34.1875 359.8203,34.3516 Q360.4688,34.5156 361.0156,34.875 Z " fill="#000000"/><text fill="#000000" font-family="sans-serif" font-size="12" lengthAdjust="spacing" textLength="143" x="378.75" y="43.9102">MemoryLoggerExtensions</text><line style="stroke:#A80036;stroke-width:1.5;" x1="233.5" x2="634.5" y1="55" y2="55"/><line style="stroke:#A80036;stroke-width:1.5;" x1="233.5" x2="634.5" y1="63" y2="63"/><ellipse cx="243.5" cy="74" fill="#84BE84" rx="3" ry="3" style="stroke:#038048;stroke-width:1.0;"/><text fill="#000000" font-family="sans-serif" font-size="11" lengthAdjust="spacing" textLength="149" x="252.5" y="78.4189">AddSimplePrioMemoryLogger()</text><ellipse cx="243.5" cy="87.8359" fill="#84BE84" rx="3" ry="3" style="stroke:#038048;stroke-width:1.0;"/><text fill="#000000" font-family="sans-serif" font-size="11" lengthAdjust="spacing" textLength="377" x="252.5" y="92.2549">AddSimplePrioMemoryLogger(Action&lt;SimplePrioMemoryLogConfig&gt; configure)</text><!--MD5=[138ca3b414e559eddacb311773beadb2]
class SimplePrioMemoryLog--><rect codeLine="12" fill="#FEFECE" filter="url(#f1blgm6rv70o23)" height="48" id="SimplePrioMemoryLog" style="stroke:#A80036;stroke-width:1.5;" width="157" x="473.5" y="303"/><ellipse cx="488.5" cy="319" fill="#ADD1B2" rx="11" ry="11" style="stroke:#A80036;stroke-width:1.0;"/><path d="M491.2656,314.875 Q491.4219,314.6563 491.6094,314.5469 Q491.7969,314.4375 492.0156,314.4375 Q492.3906,314.4375 492.625,314.6953 Q492.8594,314.9531 492.8594,315.5625 L492.8594,317.0156 Q492.8594,317.625 492.625,317.8906 Q492.3906,318.1563 492.0156,318.1563 Q491.6719,318.1563 491.4688,317.9531 Q491.2656,317.7656 491.1563,317.25 Q491.1094,316.8906 490.9219,316.7031 Q490.5938,316.3281 489.9844,316.1094 Q489.375,315.8906 488.75,315.8906 Q487.9844,315.8906 487.3516,316.2188 Q486.7188,316.5469 486.2266,317.2969 Q485.7344,318.0469 485.7344,319.0781 L485.7344,320.1719 Q485.7344,321.4063 486.625,322.2266 Q487.5156,323.0469 489.1094,323.0469 Q490.0469,323.0469 490.7031,322.7969 Q491.0938,322.6406 491.5156,322.2031 Q491.7813,321.9375 491.9297,321.8594 Q492.0781,321.7813 492.2813,321.7813 Q492.6094,321.7813 492.8672,322.0391 Q493.125,322.2969 493.125,322.6406 Q493.125,322.9844 492.7813,323.3906 Q492.2813,323.9688 491.4844,324.2969 Q490.4063,324.75 489.1094,324.75 Q487.5938,324.75 486.3906,324.125 Q485.4063,323.625 484.7188,322.5547 Q484.0313,321.4844 484.0313,320.2031 L484.0313,319.0469 Q484.0313,317.7188 484.6484,316.5703 Q485.2656,315.4219 486.3594,314.8047 Q487.4531,314.1875 488.6875,314.1875 Q489.4219,314.1875 490.0703,314.3516 Q490.7188,314.5156 491.2656,314.875 Z " fill="#000000"/><text fill="#000000" font-family="sans-serif" font-size="12" lengthAdjust="spacing" textLength="125" x="502.5" y="323.9102">SimplePrioMemoryLog</text><line style="stroke:#A80036;stroke-width:1.5;" x1="474.5" x2="629.5" y1="335" y2="335"/><line style="stroke:#A80036;stroke-width:1.5;" x1="474.5" x2="629.5" y1="343" y2="343"/><!--MD5=[b18e3329403c852b4a031c14425d7ece]
class SimplePrioMemoryLogConfig--><rect codeLine="13" fill="#FEFECE" filter="url(#f1blgm6rv70o23)" height="48" id="SimplePrioMemoryLogConfig" style="stroke:#A80036;stroke-width:1.5;" width="193" x="570.5" y="177"/><ellipse cx="585.5" cy="193" fill="#ADD1B2" rx="11" ry="11" style="stroke:#A80036;stroke-width:1.0;"/><path d="M588.2656,188.875 Q588.4219,188.6563 588.6094,188.5469 Q588.7969,188.4375 589.0156,188.4375 Q589.3906,188.4375 589.625,188.6953 Q589.8594,188.9531 589.8594,189.5625 L589.8594,191.0156 Q589.8594,191.625 589.625,191.8906 Q589.3906,192.1563 589.0156,192.1563 Q588.6719,192.1563 588.4688,191.9531 Q588.2656,191.7656 588.1563,191.25 Q588.1094,190.8906 587.9219,190.7031 Q587.5938,190.3281 586.9844,190.1094 Q586.375,189.8906 585.75,189.8906 Q584.9844,189.8906 584.3516,190.2188 Q583.7188,190.5469 583.2266,191.2969 Q582.7344,192.0469 582.7344,193.0781 L582.7344,194.1719 Q582.7344,195.4063 583.625,196.2266 Q584.5156,197.0469 586.1094,197.0469 Q587.0469,197.0469 587.7031,196.7969 Q588.0938,196.6406 588.5156,196.2031 Q588.7813,195.9375 588.9297,195.8594 Q589.0781,195.7813 589.2813,195.7813 Q589.6094,195.7813 589.8672,196.0391 Q590.125,196.2969 590.125,196.6406 Q590.125,196.9844 589.7813,197.3906 Q589.2813,197.9688 588.4844,198.2969 Q587.4063,198.75 586.1094,198.75 Q584.5938,198.75 583.3906,198.125 Q582.4063,197.625 581.7188,196.5547 Q581.0313,195.4844 581.0313,194.2031 L581.0313,193.0469 Q581.0313,191.7188 581.6484,190.5703 Q582.2656,189.4219 583.3594,188.8047 Q584.4531,188.1875 585.6875,188.1875 Q586.4219,188.1875 587.0703,188.3516 Q587.7188,188.5156 588.2656,188.875 Z " fill="#000000"/><text fill="#000000" font-family="sans-serif" font-size="12" lengthAdjust="spacing" textLength="161" x="599.5" y="197.9102">SimplePrioMemoryLogConfig</text><line style="stroke:#A80036;stroke-width:1.5;" x1="571.5" x2="762.5" y1="209" y2="209"/><line style="stroke:#A80036;stroke-width:1.5;" x1="571.5" x2="762.5" y1="217" y2="217"/><!--MD5=[46d7b23d7bca3600c0b6a49e7b7892d3]
class SimplePrioMemoryLogProvider--><rect codeLine="14" fill="#FEFECE" filter="url(#f1blgm6rv70o23)" height="48" id="SimplePrioMemoryLogProvider" style="stroke:#A80036;stroke-width:1.5;" width="202" x="333" y="177"/><ellipse cx="348" cy="193" fill="#ADD1B2" rx="11" ry="11" style="stroke:#A80036;stroke-width:1.0;"/><path d="M350.7656,188.875 Q350.9219,188.6563 351.1094,188.5469 Q351.2969,188.4375 351.5156,188.4375 Q351.8906,188.4375 352.125,188.6953 Q352.3594,188.9531 352.3594,189.5625 L352.3594,191.0156 Q352.3594,191.625 352.125,191.8906 Q351.8906,192.1563 351.5156,192.1563 Q351.1719,192.1563 350.9688,191.9531 Q350.7656,191.7656 350.6563,191.25 Q350.6094,190.8906 350.4219,190.7031 Q350.0938,190.3281 349.4844,190.1094 Q348.875,189.8906 348.25,189.8906 Q347.4844,189.8906 346.8516,190.2188 Q346.2188,190.5469 345.7266,191.2969 Q345.2344,192.0469 345.2344,193.0781 L345.2344,194.1719 Q345.2344,195.4063 346.125,196.2266 Q347.0156,197.0469 348.6094,197.0469 Q349.5469,197.0469 350.2031,196.7969 Q350.5938,196.6406 351.0156,196.2031 Q351.2813,195.9375 351.4297,195.8594 Q351.5781,195.7813 351.7813,195.7813 Q352.1094,195.7813 352.3672,196.0391 Q352.625,196.2969 352.625,196.6406 Q352.625,196.9844 352.2813,197.3906 Q351.7813,197.9688 350.9844,198.2969 Q349.9063,198.75 348.6094,198.75 Q347.0938,198.75 345.8906,198.125 Q344.9063,197.625 344.2188,196.5547 Q343.5313,195.4844 343.5313,194.2031 L343.5313,193.0469 Q343.5313,191.7188 344.1484,190.5703 Q344.7656,189.4219 345.8594,188.8047 Q346.9531,188.1875 348.1875,188.1875 Q348.9219,188.1875 349.5703,188.3516 Q350.2188,188.5156 350.7656,188.875 Z " fill="#000000"/><text fill="#000000" font-family="sans-serif" font-size="12" lengthAdjust="spacing" textLength="170" x="362" y="197.9102">SimplePrioMemoryLogProvider</text><line style="stroke:#A80036;stroke-width:1.5;" x1="334" x2="534" y1="209" y2="209"/><line style="stroke:#A80036;stroke-width:1.5;" x1="334" x2="534" y1="217" y2="217"/><!--MD5=[e8a40b5cae1f5b165522a910d885d643]
class MemoryLogger--><rect codeLine="15" fill="#FEFECE" filter="url(#f1blgm6rv70o23)" height="48" id="MemoryLogger" style="stroke:#A80036;stroke-width:1.5;" width="114" x="159" y="303"/><ellipse cx="174" cy="319" fill="#ADD1B2" rx="11" ry="11" style="stroke:#A80036;stroke-width:1.0;"/><path d="M176.7656,314.875 Q176.9219,314.6563 177.1094,314.5469 Q177.2969,314.4375 177.5156,314.4375 Q177.8906,314.4375 178.125,314.6953 Q178.3594,314.9531 178.3594,315.5625 L178.3594,317.0156 Q178.3594,317.625 178.125,317.8906 Q177.8906,318.1563 177.5156,318.1563 Q177.1719,318.1563 176.9688,317.9531 Q176.7656,317.7656 176.6563,317.25 Q176.6094,316.8906 176.4219,316.7031 Q176.0938,316.3281 175.4844,316.1094 Q174.875,315.8906 174.25,315.8906 Q173.4844,315.8906 172.8516,316.2188 Q172.2188,316.5469 171.7266,317.2969 Q171.2344,318.0469 171.2344,319.0781 L171.2344,320.1719 Q171.2344,321.4063 172.125,322.2266 Q173.0156,323.0469 174.6094,323.0469 Q175.5469,323.0469 176.2031,322.7969 Q176.5938,322.6406 177.0156,322.2031 Q177.2813,321.9375 177.4297,321.8594 Q177.5781,321.7813 177.7813,321.7813 Q178.1094,321.7813 178.3672,322.0391 Q178.625,322.2969 178.625,322.6406 Q178.625,322.9844 178.2813,323.3906 Q177.7813,323.9688 176.9844,324.2969 Q175.9063,324.75 174.6094,324.75 Q173.0938,324.75 171.8906,324.125 Q170.9063,323.625 170.2188,322.5547 Q169.5313,321.4844 169.5313,320.2031 L169.5313,319.0469 Q169.5313,317.7188 170.1484,316.5703 Q170.7656,315.4219 171.8594,314.8047 Q172.9531,314.1875 174.1875,314.1875 Q174.9219,314.1875 175.5703,314.3516 Q176.2188,314.5156 176.7656,314.875 Z " fill="#000000"/><text fill="#000000" font-family="sans-serif" font-size="12" lengthAdjust="spacing" textLength="82" x="188" y="323.9102">MemoryLogger</text><line style="stroke:#A80036;stroke-width:1.5;" x1="160" x2="272" y1="335" y2="335"/><line style="stroke:#A80036;stroke-width:1.5;" x1="160" x2="272" y1="343" y2="343"/><!--MD5=[ce2c656f3b056b09e1a3f0508b9a740c]
class MemoryLogDump--><rect codeLine="16" fill="#FEFECE" filter="url(#f1blgm6rv70o23)" height="48" id="MemoryLogDump" style="stroke:#A80036;stroke-width:1.5;" width="130" x="308" y="303"/><ellipse cx="323" cy="319" fill="#ADD1B2" rx="11" ry="11" style="stroke:#A80036;stroke-width:1.0;"/><path d="M325.7656,314.875 Q325.9219,314.6563 326.1094,314.5469 Q326.2969,314.4375 326.5156,314.4375 Q326.8906,314.4375 327.125,314.6953 Q327.3594,314.9531 327.3594,315.5625 L327.3594,317.0156 Q327.3594,317.625 327.125,317.8906 Q326.8906,318.1563 326.5156,318.1563 Q326.1719,318.1563 325.9688,317.9531 Q325.7656,317.7656 325.6563,317.25 Q325.6094,316.8906 325.4219,316.7031 Q325.0938,316.3281 324.4844,316.1094 Q323.875,315.8906 323.25,315.8906 Q322.4844,315.8906 321.8516,316.2188 Q321.2188,316.5469 320.7266,317.2969 Q320.2344,318.0469 320.2344,319.0781 L320.2344,320.1719 Q320.2344,321.4063 321.125,322.2266 Q322.0156,323.0469 323.6094,323.0469 Q324.5469,323.0469 325.2031,322.7969 Q325.5938,322.6406 326.0156,322.2031 Q326.2813,321.9375 326.4297,321.8594 Q326.5781,321.7813 326.7813,321.7813 Q327.1094,321.7813 327.3672,322.0391 Q327.625,322.2969 327.625,322.6406 Q327.625,322.9844 327.2813,323.3906 Q326.7813,323.9688 325.9844,324.2969 Q324.9063,324.75 323.6094,324.75 Q322.0938,324.75 320.8906,324.125 Q319.9063,323.625 319.2188,322.5547 Q318.5313,321.4844 318.5313,320.2031 L318.5313,319.0469 Q318.5313,317.7188 319.1484,316.5703 Q319.7656,315.4219 320.8594,314.8047 Q321.9531,314.1875 323.1875,314.1875 Q323.9219,314.1875 324.5703,314.3516 Q325.2188,314.5156 325.7656,314.875 Z " fill="#000000"/><text fill="#000000" font-family="sans-serif" font-size="12" lengthAdjust="spacing" textLength="98" x="337" y="323.9102">MemoryLogDump</text><line style="stroke:#A80036;stroke-width:1.5;" x1="309" x2="437" y1="335" y2="335"/><line style="stroke:#A80036;stroke-width:1.5;" x1="309" x2="437" y1="343" y2="343"/><!--MD5=[4bf124702e26e8742700d64b46e56cfa]
class Crash--><rect codeLine="17" fill="#FEFECE" filter="url(#f1blgm6rv70o23)" height="48" id="Crash" style="stroke:#A80036;stroke-width:1.5;" width="66" x="340" y="429"/><ellipse cx="355" cy="445" fill="#ADD1B2" rx="11" ry="11" style="stroke:#A80036;stroke-width:1.0;"/><path d="M357.7656,440.875 Q357.9219,440.6563 358.1094,440.5469 Q358.2969,440.4375 358.5156,440.4375 Q358.8906,440.4375 359.125,440.6953 Q359.3594,440.9531 359.3594,441.5625 L359.3594,443.0156 Q359.3594,443.625 359.125,443.8906 Q358.8906,444.1563 358.5156,444.1563 Q358.1719,444.1563 357.9688,443.9531 Q357.7656,443.7656 357.6563,443.25 Q357.6094,442.8906 357.4219,442.7031 Q357.0938,442.3281 356.4844,442.1094 Q355.875,441.8906 355.25,441.8906 Q354.4844,441.8906 353.8516,442.2188 Q353.2188,442.5469 352.7266,443.2969 Q352.2344,444.0469 352.2344,445.0781 L352.2344,446.1719 Q352.2344,447.4063 353.125,448.2266 Q354.0156,449.0469 355.6094,449.0469 Q356.5469,449.0469 357.2031,448.7969 Q357.5938,448.6406 358.0156,448.2031 Q358.2813,447.9375 358.4297,447.8594 Q358.5781,447.7813 358.7813,447.7813 Q359.1094,447.7813 359.3672,448.0391 Q359.625,448.2969 359.625,448.6406 Q359.625,448.9844 359.2813,449.3906 Q358.7813,449.9688 357.9844,450.2969 Q356.9063,450.75 355.6094,450.75 Q354.0938,450.75 352.8906,450.125 Q351.9063,449.625 351.2188,448.5547 Q350.5313,447.4844 350.5313,446.2031 L350.5313,445.0469 Q350.5313,443.7188 351.1484,442.5703 Q351.7656,441.4219 352.8594,440.8047 Q353.9531,440.1875 355.1875,440.1875 Q355.9219,440.1875 356.5703,440.3516 Q357.2188,440.5156 357.7656,440.875 Z " fill="#000000"/><text fill="#000000" font-family="sans-serif" font-size="12" lengthAdjust="spacing" textLength="34" x="369" y="449.9102">Crash</text><line style="stroke:#A80036;stroke-width:1.5;" x1="341" x2="405" y1="461" y2="461"/><line style="stroke:#A80036;stroke-width:1.5;" x1="341" x2="405" y1="469" y2="469"/><!--MD5=[7e6197fd869ae69bdc924ba3b74c995d]
link MemoryLoggerExtensions to SimplePrioMemoryLogProvider--><path codeLine="19" d="M434,99.34 C434,122.16 434,150.86 434,171.77 " fill="none" id="MemoryLoggerExtensions-to-SimplePrioMemoryLogProvider" style="stroke:#A80036;stroke-width:1.0;stroke-dasharray:7.0,7.0;"/><polygon fill="#A80036" points="434,176.92,438,167.92,434,171.92,430,167.92,434,176.92" style="stroke:#A80036;stroke-width:1.0;"/><text fill="#000000" font-family="sans-serif" font-size="13" lengthAdjust="spacing" textLength="64" x="435" y="143.4951">«registers»</text><!--MD5=[0cbdc902d683ca2773d676958626ae80]
link MemoryLoggerExtensions to SimplePrioMemoryLogConfig--><path codeLine="20" d="M496.75,99.16 C536.73,122.85 587.55,152.94 623.21,174.06 " fill="none" id="MemoryLoggerExtensions-to-SimplePrioMemoryLogConfig" style="stroke:#A80036;stroke-width:1.0;stroke-dasharray:7.0,7.0;"/><polygon fill="#A80036" points="627.92,176.85,622.2093,168.8258,623.6162,174.3049,618.1371,175.7119,627.92,176.85" style="stroke:#A80036;stroke-width:1.0;"/><text fill="#000000" font-family="sans-serif" font-size="13" lengthAdjust="spacing" textLength="64" x="572" y="143.4951">«registers»</text><!--MD5=[b74f4c3e940a163f5dd29ed2308c9bf4]
reverse link ILogger to MemoryLogger--><path codeLine="22" d="M245.1,243.99 C238.15,263.59 230.13,286.17 224.28,302.67 " fill="none" id="ILogger-backto-MemoryLogger" style="stroke:#A80036;stroke-width:1.0;stroke-dasharray:7.0,7.0;"/><polygon fill="none" points="238.54,241.54,251.83,225.03,251.74,246.22,238.54,241.54" style="stroke:#A80036;stroke-width:1.0;"/><!--MD5=[996867b76d2c471825d9e9071dc7399c]
reverse link SimplePrioMemoryLogProvider to SimplePrioMemoryLogConfig--><path codeLine="24" d="M548.27,201 C555.63,201 562.98,201 570.34,201 " fill="none" id="SimplePrioMemoryLogProvider-backto-SimplePrioMemoryLogConfig" style="stroke:#A80036;stroke-width:1.0;"/><polygon fill="#A80036" points="535.03,201,541.03,205,547.03,201,541.03,197,535.03,201" style="stroke:#A80036;stroke-width:1.0;"/><!--MD5=[415f66a1e9b69dd908359057bbeddddd]
reverse link SimplePrioMemoryLogProvider to MemoryLogger--><path codeLine="25" d="M382.04,231.55 C343.63,253.4 292.07,282.73 256.65,302.88 " fill="none" id="SimplePrioMemoryLogProvider-backto-MemoryLogger" style="stroke:#A80036;stroke-width:1.0;"/><polygon fill="#A80036" points="393.51,225.03,386.3169,224.5201,383.0797,230.9638,390.2728,231.4736,393.51,225.03" style="stroke:#A80036;stroke-width:1.0;"/><text fill="#000000" font-family="sans-serif" font-size="13" lengthAdjust="spacing" textLength="7" x="375.7874" y="246.3753">1</text><text fill="#000000" font-family="sans-serif" font-size="13" lengthAdjust="spacing" textLength="5" x="261.4259" y="292.1894">*</text><!--MD5=[6a140fdf1afa24d0d45502da9780cb68]
reverse link SimplePrioMemoryLogProvider to SimplePrioMemoryLog--><path codeLine="26" d="M465.1,234.68 C485.44,256.06 511.54,283.48 529.8,302.67 " fill="none" id="SimplePrioMemoryLogProvider-backto-SimplePrioMemoryLog" style="stroke:#A80036;stroke-width:1.0;"/><polygon fill="#A80036" points="455.92,225.03,457.1582,232.134,464.1919,233.7234,462.9538,226.6194,455.92,225.03" style="stroke:#A80036;stroke-width:1.0;"/><!--MD5=[1c3157ebb6939562df8a79241c3b85e3]
reverse link SimplePrioMemoryLogProvider to MemoryLogDump--><path codeLine="27" d="M416.92,236.73 C406.56,257.79 393.62,284.09 384.48,302.67 " fill="none" id="SimplePrioMemoryLogProvider-backto-MemoryLogDump" style="stroke:#A80036;stroke-width:1.0;"/><polygon fill="#A80036" points="422.67,225.03,416.4302,228.6446,417.3669,235.7946,423.6066,232.18,422.67,225.03" style="stroke:#A80036;stroke-width:1.0;"/><!--MD5=[3019f3e816958922e1810d13b5b849d6]
reverse link MemoryLogDump to SimplePrioMemoryLog--><path codeLine="28" d="M451.22,327 C458.54,327 465.87,327 473.2,327 " fill="none" id="MemoryLogDump-backto-SimplePrioMemoryLog" style="stroke:#A80036;stroke-width:1.0;"/><polygon fill="#FFFFFF" points="438.03,327,444.03,331,450.03,327,444.03,323,438.03,327" style="stroke:#A80036;stroke-width:1.0;"/><!--MD5=[b95476d0a880b4435e0d92c38c586bea]
reverse link MemoryLogger to MemoryLogDump--><path codeLine="29" d="M286.07,327 C293.31,327 300.55,327 307.79,327 " fill="none" id="MemoryLogger-backto-MemoryLogDump" style="stroke:#A80036;stroke-width:1.0;"/><polygon fill="#FFFFFF" points="273.04,327,279.04,331,285.04,327,279.04,323,273.04,327" style="stroke:#A80036;stroke-width:1.0;"/><!--MD5=[c3031b4f2e31ae67486d2f95ebc72b83]
reverse link MemoryLogDump to Crash--><path codeLine="31" d="M373,356.14 C373,378.04 373,408.09 373,428.67 " fill="none" id="MemoryLogDump-backto-Crash" style="stroke:#A80036;stroke-width:1.0;stroke-dasharray:7.0,7.0;"/><polygon fill="#A80036" points="373,351.03,369,360.03,373,356.03,377,360.03,373,351.03" style="stroke:#A80036;stroke-width:1.0;"/><text fill="#000000" font-family="sans-serif" font-size="13" lengthAdjust="spacing" textLength="74" x="374" y="395.4951">«references»</text><!--MD5=[023339fdc12c953716ae28e76b91c7a8]
link SimplePrioMemoryLogProvider to Crash--><path codeLine="32" d="M522.07,225 C597.83,249.34 688.94,292.35 648,351 C593.92,428.48 473.51,446.7 411.52,450.86 " fill="none" id="SimplePrioMemoryLogProvider-to-Crash" style="stroke:#A80036;stroke-width:1.0;stroke-dasharray:7.0,7.0;"/><polygon fill="#A80036" points="406.43,451.18,415.6638,454.6059,411.4201,450.8654,415.1605,446.6217,406.43,451.18" style="stroke:#A80036;stroke-width:1.0;"/><text fill="#000000" font-family="sans-serif" font-size="13" lengthAdjust="spacing" textLength="64" x="659" y="332.4951">«registers»</text><!--MD5=[c9179c436ffac624a73a56f47fb406b2]
link UserApp to MemoryLogger--><path codeLine="36" d="M76.58,85.43 C104.76,134.06 169.5,245.77 199.81,298.06 " fill="none" id="UserApp-to-MemoryLogger" style="stroke:#A80036;stroke-width:1.0;"/><polygon fill="#A80036" points="202.45,302.62,201.3884,292.8285,199.9386,298.2965,194.4707,296.8467,202.45,302.62" style="stroke:#A80036;stroke-width:1.0;"/><text fill="#000000" font-family="sans-serif" font-size="13" lengthAdjust="spacing" textLength="42" x="158" y="206.4951">«uses»</text><!--MD5=[e18c3d6b74a9e9ac9146c9ccda6cbba7]
link UserApp to MemoryLoggerExtensions--><path codeLine="37" d="M103.06,61 C134.06,61 179.59,61 227.02,61 " fill="none" id="UserApp-to-MemoryLoggerExtensions" style="stroke:#A80036;stroke-width:1.0;"/><polygon fill="#A80036" points="232.21,61,223.21,57,227.21,61,223.21,65,232.21,61" style="stroke:#A80036;stroke-width:1.0;"/><text fill="#000000" font-family="sans-serif" font-size="13" lengthAdjust="spacing" textLength="91" x="122.25" y="54.4951">«registers with»</text><!--MD5=[d01774c87d081959dea5243fb52fa865]
link UserApp to Crash--><path codeLine="38" d="M57.94,85.29 C50.36,125.41 39.6,209.38 66,273 C111.66,383.05 263.13,428.93 334.79,444.82 " fill="none" id="UserApp-to-Crash" style="stroke:#A80036;stroke-width:1.0;"/><polygon fill="#A80036" points="339.81,445.92,331.8757,440.085,334.9261,444.849,330.1621,447.8993,339.81,445.92" style="stroke:#A80036;stroke-width:1.0;"/><text fill="#000000" font-family="sans-serif" font-size="13" lengthAdjust="spacing" textLength="100" x="67" y="269.4951">«requests dump»</text><!--MD5=[674884b7b436d9470a5fa23f2802a8ed]
@startuml RJCP.Diagnostics.Logging

rectangle {
    class UserApp #ffdd33
}

rectangle {
    interface ILogger
    class MemoryLoggerExtensions {
        +AddSimplePrioMemoryLogger()
        +AddSimplePrioMemoryLogger(Action<SimplePrioMemoryLogConfig> configure)
    }
    class SimplePrioMemoryLog
    class SimplePrioMemoryLogConfig
    class SimplePrioMemoryLogProvider
    class MemoryLogger
    class MemoryLogDump
    class Crash

    MemoryLoggerExtensions .d.> SimplePrioMemoryLogProvider : <<registers>>
    MemoryLoggerExtensions .d.> SimplePrioMemoryLogConfig : <<registers>>

    ILogger <|.d. MemoryLogger

    SimplePrioMemoryLogProvider *-r- SimplePrioMemoryLogConfig
    SimplePrioMemoryLogProvider "1" *-d- "*" MemoryLogger
    SimplePrioMemoryLogProvider *-d- SimplePrioMemoryLog
    SimplePrioMemoryLogProvider *-d- MemoryLogDump
    MemoryLogDump o-r- SimplePrioMemoryLog
    MemoryLogger o- MemoryLogDump

    Crash .u.> MemoryLogDump : <<references>>
    SimplePrioMemoryLogProvider .d.> Crash : <<registers>>
}

'UserApp -u-> MemoryLoggerExtensions : <<registers using>>
UserApp -r-> MemoryLogger : <<uses>>
UserApp -r-> MemoryLoggerExtensions : <<registers with>>
UserApp -d-> Crash : <<requests dump>>
@enduml

@startuml RJCP.Diagnostics.Logging

rectangle {
    class UserApp #ffdd33
}

rectangle {
    interface ILogger
    class MemoryLoggerExtensions {
        +AddSimplePrioMemoryLogger()
        +AddSimplePrioMemoryLogger(Action<SimplePrioMemoryLogConfig> configure)
    }
    class SimplePrioMemoryLog
    class SimplePrioMemoryLogConfig
    class SimplePrioMemoryLogProvider
    class MemoryLogger
    class MemoryLogDump
    class Crash

    MemoryLoggerExtensions .d.> SimplePrioMemoryLogProvider : <<registers>>
    MemoryLoggerExtensions .d.> SimplePrioMemoryLogConfig : <<registers>>

    ILogger <|.d. MemoryLogger

    SimplePrioMemoryLogProvider *-r- SimplePrioMemoryLogConfig
    SimplePrioMemoryLogProvider "1" *-d- "*" MemoryLogger
    SimplePrioMemoryLogProvider *-d- SimplePrioMemoryLog
    SimplePrioMemoryLogProvider *-d- MemoryLogDump
    MemoryLogDump o-r- SimplePrioMemoryLog
    MemoryLogger o- MemoryLogDump

    Crash .u.> MemoryLogDump : <<references>>
    SimplePrioMemoryLogProvider .d.> Crash : <<registers>>
}

UserApp -r-> MemoryLogger : <<uses>>
UserApp -r-> MemoryLoggerExtensions : <<registers with>>
UserApp -d-> Crash : <<requests dump>>
@enduml

PlantUML version 1.2022.0(Tue Jan 11 17:16:42 CET 2022)
(GPL source distribution)
Java Runtime: Java(TM) SE Runtime Environment
JVM: Java HotSpot(TM) Client VM
Default Encoding: Cp1252
Language: en
Country: US
--></g></svg>