<?xml version="1.0" encoding="us-ascii" standalone="no"?><svg xmlns="http://www.w3.org/2000/svg" xmlns:xlink="http://www.w3.org/1999/xlink" contentStyleType="text/css" height="500px" preserveAspectRatio="none" style="width:907px;height:500px;background:#FFFFFF;" version="1.1" viewBox="0 0 907 500" width="907px" zoomAndPan="magnify"><defs/><g><g id="cluster_##2"><rect fill="none" height="80" rx="2.5" ry="2.5" style="stroke:#181818;stroke-width:1.0;" width="124" x="7" y="23.29"/></g><g id="cluster_##5"><rect fill="none" height="487.59" rx="2.5" ry="2.5" style="stroke:#181818;stroke-width:1.0;" width="720" x="181" y="7"/></g><!--class UserApp--><g id="elem_UserApp"><rect codeLine="2" fill="#FFDD33" height="48" id="UserApp" rx="2.5" ry="2.5" style="stroke:#181818;stroke-width:0.5;" width="91" x="23.5" y="39.29"/><ellipse cx="38.5" cy="55.29" fill="#ADD1B2" rx="11" ry="11" style="stroke:#181818;stroke-width:1.0;"/><path d="M41.4688,60.9306 Q40.8906,61.2275 40.25,61.3681 Q39.6094,61.5244 38.9063,61.5244 Q36.4063,61.5244 35.0781,59.8837 Q33.7656,58.2275 33.7656,55.1025 Q33.7656,51.9775 35.0781,50.3212 Q36.4063,48.665 38.9063,48.665 Q39.6094,48.665 40.25,48.8212 Q40.9063,48.9775 41.4688,49.2744 L41.4688,51.9931 Q40.8438,51.415 40.25,51.1494 Q39.6563,50.8681 39.0313,50.8681 Q37.6875,50.8681 37,51.9462 Q36.3125,53.0087 36.3125,55.1025 Q36.3125,57.1962 37,58.2744 Q37.6875,59.3369 39.0313,59.3369 Q39.6563,59.3369 40.25,59.0712 Q40.8438,58.79 41.4688,58.2119 L41.4688,60.9306 Z " fill="#000000"/><text fill="#000000" font-family="sans-serif" font-size="14" lengthAdjust="spacing" textLength="59" x="52.5" y="60.1367">UserApp</text><line style="stroke:#181818;stroke-width:0.5;" x1="24.5" x2="113.5" y1="71.29" y2="71.29"/><line style="stroke:#181818;stroke-width:0.5;" x1="24.5" x2="113.5" y1="79.29" y2="79.29"/></g><!--class ILogger--><g id="elem_ILogger"><rect codeLine="6" fill="#F1F1F1" height="48" id="ILogger" rx="2.5" ry="2.5" style="stroke:#181818;stroke-width:0.5;" width="83" x="264.5" y="180.59"/><ellipse cx="279.5" cy="196.59" fill="#B4A7E5" rx="11" ry="11" style="stroke:#181818;stroke-width:1.0;"/><path d="M275.4219,192.3556 L275.4219,190.1994 L282.8125,190.1994 L282.8125,192.3556 L280.3438,192.3556 L280.3438,200.4337 L282.8125,200.4337 L282.8125,202.59 L275.4219,202.59 L275.4219,200.4337 L277.8906,200.4337 L277.8906,192.3556 L275.4219,192.3556 Z " fill="#000000"/><text fill="#000000" font-family="sans-serif" font-size="14" font-style="italic" lengthAdjust="spacing" textLength="51" x="293.5" y="201.4367">ILogger</text><line style="stroke:#181818;stroke-width:0.5;" x1="265.5" x2="346.5" y1="212.59" y2="212.59"/><line style="stroke:#181818;stroke-width:0.5;" x1="265.5" x2="346.5" y1="220.59" y2="220.59"/></g><!--class MemoryLoggerExtensions--><g id="elem_MemoryLoggerExtensions"><rect codeLine="7" fill="#F1F1F1" height="80.5938" id="MemoryLoggerExtensions" rx="2.5" ry="2.5" style="stroke:#181818;stroke-width:0.5;" width="570" x="252" y="23"/><ellipse cx="443.25" cy="39" fill="#ADD1B2" rx="11" ry="11" style="stroke:#181818;stroke-width:1.0;"/><path d="M446.2188,44.6406 Q445.6406,44.9375 445,45.0781 Q444.3594,45.2344 443.6563,45.2344 Q441.1563,45.2344 439.8281,43.5938 Q438.5156,41.9375 438.5156,38.8125 Q438.5156,35.6875 439.8281,34.0313 Q441.1563,32.375 443.6563,32.375 Q444.3594,32.375 445,32.5313 Q445.6563,32.6875 446.2188,32.9844 L446.2188,35.7031 Q445.5938,35.125 445,34.8594 Q444.4063,34.5781 443.7813,34.5781 Q442.4375,34.5781 441.75,35.6563 Q441.0625,36.7188 441.0625,38.8125 Q441.0625,40.9063 441.75,41.9844 Q442.4375,43.0469 443.7813,43.0469 Q444.4063,43.0469 445,42.7813 Q445.5938,42.5 446.2188,41.9219 L446.2188,44.6406 Z " fill="#000000"/><text fill="#000000" font-family="sans-serif" font-size="14" lengthAdjust="spacing" textLength="179" x="463.75" y="43.8467">MemoryLoggerExtensions</text><line style="stroke:#181818;stroke-width:0.5;" x1="253" x2="821" y1="55" y2="55"/><line style="stroke:#181818;stroke-width:0.5;" x1="253" x2="821" y1="63" y2="63"/><ellipse cx="263" cy="76.6484" fill="#84BE84" rx="3" ry="3" style="stroke:#038048;stroke-width:1.0;"/><text fill="#000000" font-family="sans-serif" font-size="14" lengthAdjust="spacing" textLength="212" x="272" y="79.9951">AddSimplePrioMemoryLogger()</text><ellipse cx="263" cy="92.9453" fill="#84BE84" rx="3" ry="3" style="stroke:#038048;stroke-width:1.0;"/><text fill="#000000" font-family="sans-serif" font-size="14" lengthAdjust="spacing" textLength="544" x="272" y="96.292">AddSimplePrioMemoryLogger(Action&lt;SimplePrioMemoryLogConfig&gt; configure)</text></g><!--class SimplePrioMemoryLog--><g id="elem_SimplePrioMemoryLog"><rect codeLine="11" fill="#F1F1F1" height="48" id="SimplePrioMemoryLog" rx="2.5" ry="2.5" style="stroke:#181818;stroke-width:0.5;" width="184" x="557" y="305.59"/><ellipse cx="572" cy="321.59" fill="#ADD1B2" rx="11" ry="11" style="stroke:#181818;stroke-width:1.0;"/><path d="M574.9688,327.2306 Q574.3906,327.5275 573.75,327.6681 Q573.1094,327.8244 572.4063,327.8244 Q569.9063,327.8244 568.5781,326.1838 Q567.2656,324.5275 567.2656,321.4025 Q567.2656,318.2775 568.5781,316.6213 Q569.9063,314.965 572.4063,314.965 Q573.1094,314.965 573.75,315.1213 Q574.4063,315.2775 574.9688,315.5744 L574.9688,318.2931 Q574.3438,317.715 573.75,317.4494 Q573.1563,317.1681 572.5313,317.1681 Q571.1875,317.1681 570.5,318.2463 Q569.8125,319.3088 569.8125,321.4025 Q569.8125,323.4963 570.5,324.5744 Q571.1875,325.6369 572.5313,325.6369 Q573.1563,325.6369 573.75,325.3713 Q574.3438,325.09 574.9688,324.5119 L574.9688,327.2306 Z " fill="#000000"/><text fill="#000000" font-family="sans-serif" font-size="14" lengthAdjust="spacing" textLength="152" x="586" y="326.4367">SimplePrioMemoryLog</text><line style="stroke:#181818;stroke-width:0.5;" x1="558" x2="740" y1="337.59" y2="337.59"/><line style="stroke:#181818;stroke-width:0.5;" x1="558" x2="740" y1="345.59" y2="345.59"/></g><!--class SimplePrioMemoryLogConfig--><g id="elem_SimplePrioMemoryLogConfig"><rect codeLine="12" fill="#F1F1F1" height="48" id="SimplePrioMemoryLogConfig" rx="2.5" ry="2.5" style="stroke:#181818;stroke-width:0.5;" width="228" x="657" y="180.59"/><ellipse cx="672" cy="196.59" fill="#ADD1B2" rx="11" ry="11" style="stroke:#181818;stroke-width:1.0;"/><path d="M674.9688,202.2306 Q674.3906,202.5275 673.75,202.6681 Q673.1094,202.8244 672.4063,202.8244 Q669.9063,202.8244 668.5781,201.1837 Q667.2656,199.5275 667.2656,196.4025 Q667.2656,193.2775 668.5781,191.6212 Q669.9063,189.965 672.4063,189.965 Q673.1094,189.965 673.75,190.1212 Q674.4063,190.2775 674.9688,190.5744 L674.9688,193.2931 Q674.3438,192.715 673.75,192.4494 Q673.1563,192.1681 672.5313,192.1681 Q671.1875,192.1681 670.5,193.2462 Q669.8125,194.3087 669.8125,196.4025 Q669.8125,198.4962 670.5,199.5744 Q671.1875,200.6369 672.5313,200.6369 Q673.1563,200.6369 673.75,200.3712 Q674.3438,200.09 674.9688,199.5119 L674.9688,202.2306 Z " fill="#000000"/><text fill="#000000" font-family="sans-serif" font-size="14" lengthAdjust="spacing" textLength="196" x="686" y="201.4367">SimplePrioMemoryLogConfig</text><line style="stroke:#181818;stroke-width:0.5;" x1="658" x2="884" y1="212.59" y2="212.59"/><line style="stroke:#181818;stroke-width:0.5;" x1="658" x2="884" y1="220.59" y2="220.59"/></g><!--class SimplePrioMemoryLogProvider--><g id="elem_SimplePrioMemoryLogProvider"><rect codeLine="13" fill="#F1F1F1" height="48" id="SimplePrioMemoryLogProvider" rx="2.5" ry="2.5" style="stroke:#181818;stroke-width:0.5;" width="240" x="382" y="180.59"/><ellipse cx="397" cy="196.59" fill="#ADD1B2" rx="11" ry="11" style="stroke:#181818;stroke-width:1.0;"/><path d="M399.9688,202.2306 Q399.3906,202.5275 398.75,202.6681 Q398.1094,202.8244 397.4063,202.8244 Q394.9063,202.8244 393.5781,201.1837 Q392.2656,199.5275 392.2656,196.4025 Q392.2656,193.2775 393.5781,191.6212 Q394.9063,189.965 397.4063,189.965 Q398.1094,189.965 398.75,190.1212 Q399.4063,190.2775 399.9688,190.5744 L399.9688,193.2931 Q399.3438,192.715 398.75,192.4494 Q398.1563,192.1681 397.5313,192.1681 Q396.1875,192.1681 395.5,193.2462 Q394.8125,194.3087 394.8125,196.4025 Q394.8125,198.4962 395.5,199.5744 Q396.1875,200.6369 397.5313,200.6369 Q398.1563,200.6369 398.75,200.3712 Q399.3438,200.09 399.9688,199.5119 L399.9688,202.2306 Z " fill="#000000"/><text fill="#000000" font-family="sans-serif" font-size="14" lengthAdjust="spacing" textLength="208" x="411" y="201.4367">SimplePrioMemoryLogProvider</text><line style="stroke:#181818;stroke-width:0.5;" x1="383" x2="621" y1="212.59" y2="212.59"/><line style="stroke:#181818;stroke-width:0.5;" x1="383" x2="621" y1="220.59" y2="220.59"/></g><!--class MemoryLogger--><g id="elem_MemoryLogger"><rect codeLine="14" fill="#F1F1F1" height="48" id="MemoryLogger" rx="2.5" ry="2.5" style="stroke:#181818;stroke-width:0.5;" width="135" x="197.5" y="305.59"/><ellipse cx="212.5" cy="321.59" fill="#ADD1B2" rx="11" ry="11" style="stroke:#181818;stroke-width:1.0;"/><path d="M215.4688,327.2306 Q214.8906,327.5275 214.25,327.6681 Q213.6094,327.8244 212.9063,327.8244 Q210.4063,327.8244 209.0781,326.1838 Q207.7656,324.5275 207.7656,321.4025 Q207.7656,318.2775 209.0781,316.6213 Q210.4063,314.965 212.9063,314.965 Q213.6094,314.965 214.25,315.1213 Q214.9063,315.2775 215.4688,315.5744 L215.4688,318.2931 Q214.8438,317.715 214.25,317.4494 Q213.6563,317.1681 213.0313,317.1681 Q211.6875,317.1681 211,318.2463 Q210.3125,319.3088 210.3125,321.4025 Q210.3125,323.4963 211,324.5744 Q211.6875,325.6369 213.0313,325.6369 Q213.6563,325.6369 214.25,325.3713 Q214.8438,325.09 215.4688,324.5119 L215.4688,327.2306 Z " fill="#000000"/><text fill="#000000" font-family="sans-serif" font-size="14" lengthAdjust="spacing" textLength="103" x="226.5" y="326.4367">MemoryLogger</text><line style="stroke:#181818;stroke-width:0.5;" x1="198.5" x2="331.5" y1="337.59" y2="337.59"/><line style="stroke:#181818;stroke-width:0.5;" x1="198.5" x2="331.5" y1="345.59" y2="345.59"/></g><!--class MemoryLogDump--><g id="elem_MemoryLogDump"><rect codeLine="15" fill="#F1F1F1" height="48" id="MemoryLogDump" rx="2.5" ry="2.5" style="stroke:#181818;stroke-width:0.5;" width="154" x="368" y="305.59"/><ellipse cx="383" cy="321.59" fill="#ADD1B2" rx="11" ry="11" style="stroke:#181818;stroke-width:1.0;"/><path d="M385.9688,327.2306 Q385.3906,327.5275 384.75,327.6681 Q384.1094,327.8244 383.4063,327.8244 Q380.9063,327.8244 379.5781,326.1838 Q378.2656,324.5275 378.2656,321.4025 Q378.2656,318.2775 379.5781,316.6213 Q380.9063,314.965 383.4063,314.965 Q384.1094,314.965 384.75,315.1213 Q385.4063,315.2775 385.9688,315.5744 L385.9688,318.2931 Q385.3438,317.715 384.75,317.4494 Q384.1563,317.1681 383.5313,317.1681 Q382.1875,317.1681 381.5,318.2463 Q380.8125,319.3088 380.8125,321.4025 Q380.8125,323.4963 381.5,324.5744 Q382.1875,325.6369 383.5313,325.6369 Q384.1563,325.6369 384.75,325.3713 Q385.3438,325.09 385.9688,324.5119 L385.9688,327.2306 Z " fill="#000000"/><text fill="#000000" font-family="sans-serif" font-size="14" lengthAdjust="spacing" textLength="122" x="397" y="326.4367">MemoryLogDump</text><line style="stroke:#181818;stroke-width:0.5;" x1="369" x2="521" y1="337.59" y2="337.59"/><line style="stroke:#181818;stroke-width:0.5;" x1="369" x2="521" y1="345.59" y2="345.59"/></g><!--class Crash--><g id="elem_Crash"><rect codeLine="16" fill="#F1F1F1" height="48" id="Crash" rx="2.5" ry="2.5" style="stroke:#181818;stroke-width:0.5;" width="72" x="409" y="430.59"/><ellipse cx="424" cy="446.59" fill="#ADD1B2" rx="11" ry="11" style="stroke:#181818;stroke-width:1.0;"/><path d="M426.9688,452.2306 Q426.3906,452.5275 425.75,452.6681 Q425.1094,452.8244 424.4063,452.8244 Q421.9063,452.8244 420.5781,451.1838 Q419.2656,449.5275 419.2656,446.4025 Q419.2656,443.2775 420.5781,441.6213 Q421.9063,439.965 424.4063,439.965 Q425.1094,439.965 425.75,440.1213 Q426.4063,440.2775 426.9688,440.5744 L426.9688,443.2931 Q426.3438,442.715 425.75,442.4494 Q425.1563,442.1681 424.5313,442.1681 Q423.1875,442.1681 422.5,443.2463 Q421.8125,444.3088 421.8125,446.4025 Q421.8125,448.4963 422.5,449.5744 Q423.1875,450.6369 424.5313,450.6369 Q425.1563,450.6369 425.75,450.3713 Q426.3438,450.09 426.9688,449.5119 L426.9688,452.2306 Z " fill="#000000"/><text fill="#000000" font-family="sans-serif" font-size="14" lengthAdjust="spacing" textLength="40" x="438" y="451.4367">Crash</text><line style="stroke:#181818;stroke-width:0.5;" x1="410" x2="480" y1="462.59" y2="462.59"/><line style="stroke:#181818;stroke-width:0.5;" x1="410" x2="480" y1="470.59" y2="470.59"/></g><!--link MemoryLoggerExtensions to SimplePrioMemoryLogProvider--><g id="link_MemoryLoggerExtensions_SimplePrioMemoryLogProvider"><path codeLine="18" d="M527.06,103.84 C521.41,126.34 514.45,154.02 509.31,174.51 " fill="none" id="MemoryLoggerExtensions-to-SimplePrioMemoryLogProvider" style="stroke:#181818;stroke-width:1.0;stroke-dasharray:7.0,7.0;"/><polygon fill="#181818" points="507.9,179.09,513.9688,171.3331,509.116,174.2401,506.209,169.3874,507.9,179.09" style="stroke:#181818;stroke-width:1.0;"/><text fill="#000000" font-family="sans-serif" font-size="13" lengthAdjust="spacing" textLength="72" x="520" y="146.6569">&#171;registers&#187;</text></g><!--link MemoryLoggerExtensions to SimplePrioMemoryLogConfig--><g id="link_MemoryLoggerExtensions_SimplePrioMemoryLogConfig"><path codeLine="19" d="M603.74,104.02 C643.14,127.48 691.93,156.52 726.62,177.17 " fill="none" id="MemoryLoggerExtensions-to-SimplePrioMemoryLogConfig" style="stroke:#181818;stroke-width:1.0;stroke-dasharray:7.0,7.0;"/><polygon fill="#181818" points="730.63,180.16,724.939,172.1218,726.3325,177.6043,720.85,178.9978,730.63,180.16" style="stroke:#181818;stroke-width:1.0;"/><text fill="#000000" font-family="sans-serif" font-size="13" lengthAdjust="spacing" textLength="72" x="682" y="146.6569">&#171;registers&#187;</text></g><!--reverse link ILogger to MemoryLogger--><g id="link_ILogger_MemoryLogger"><path codeLine="21" d="M291.56,248.91 C285.24,267.88 278.07,289.37 272.78,305.25 " fill="none" id="ILogger-backto-MemoryLogger" style="stroke:#181818;stroke-width:1.0;stroke-dasharray:7.0,7.0;"/><polygon fill="none" points="285.23,246.77,298.19,230.01,298.51,251.2,285.23,246.77" style="stroke:#181818;stroke-width:1.0;"/></g><!--reverse link SimplePrioMemoryLogProvider to SimplePrioMemoryLogConfig--><g id="link_SimplePrioMemoryLogProvider_SimplePrioMemoryLogConfig"><path codeLine="23" d="M636.24,204.59 C643.02,204.59 649.8,204.59 656.58,204.59 " fill="none" id="SimplePrioMemoryLogProvider-backto-SimplePrioMemoryLogConfig" style="stroke:#181818;stroke-width:1.0;"/><polygon fill="#181818" points="623.31,204.59,629.31,208.59,635.31,204.59,629.31,200.59,623.31,204.59" style="stroke:#181818;stroke-width:1.0;"/></g><!--reverse link SimplePrioMemoryLogProvider to MemoryLogger--><g id="link_SimplePrioMemoryLogProvider_MemoryLogger"><path codeLine="24" d="M444.5,235.43 C403.13,256.9 348.14,285.44 309.97,305.25 " fill="none" id="SimplePrioMemoryLogProvider-backto-MemoryLogger" style="stroke:#181818;stroke-width:1.0;"/><polygon fill="#181818" points="455.86,229.01,448.6922,228.2211,445.2071,234.5342,452.375,235.323,455.86,229.01" style="stroke:#181818;stroke-width:1.0;"/><text fill="#000000" font-family="sans-serif" font-size="13" lengthAdjust="spacing" textLength="8" x="437.4964" y="248.4738">1</text><text fill="#000000" font-family="sans-serif" font-size="13" lengthAdjust="spacing" textLength="7" x="313.0783" y="294.5721">*</text></g><!--reverse link SimplePrioMemoryLogProvider to SimplePrioMemoryLog--><g id="link_SimplePrioMemoryLogProvider_SimplePrioMemoryLog"><path codeLine="25" d="M540.69,237.96 C565.95,259.1 598.35,286.21 621.11,305.25 " fill="none" id="SimplePrioMemoryLogProvider-backto-SimplePrioMemoryLog" style="stroke:#181818;stroke-width:1.0;"/><polygon fill="#181818" points="531,229.01,533.035,235.928,540.2035,236.7104,538.1685,229.7923,531,229.01" style="stroke:#181818;stroke-width:1.0;"/></g><!--reverse link SimplePrioMemoryLogProvider to MemoryLogDump--><g id="link_SimplePrioMemoryLogProvider_MemoryLogDump"><path codeLine="26" d="M485.26,241.72 C475.75,262.23 464.12,287.32 455.82,305.25 " fill="none" id="SimplePrioMemoryLogProvider-backto-MemoryLogDump" style="stroke:#181818;stroke-width:1.0;"/><polygon fill="#181818" points="491.14,230.01,484.9909,233.7768,486.1029,240.9017,492.252,237.1348,491.14,230.01" style="stroke:#181818;stroke-width:1.0;"/></g><!--reverse link MemoryLogDump to SimplePrioMemoryLog--><g id="link_MemoryLogDump_SimplePrioMemoryLog"><path codeLine="27" d="M536.1,329.59 C543.05,329.59 550,329.59 556.94,329.59 " fill="none" id="MemoryLogDump-backto-SimplePrioMemoryLog" style="stroke:#181818;stroke-width:1.0;"/><polygon fill="none" points="523.3,329.59,529.3,333.59,535.3,329.59,529.3,325.59,523.3,329.59" style="stroke:#181818;stroke-width:1.0;"/></g><!--reverse link MemoryLogger to MemoryLogDump--><g id="link_MemoryLogger_MemoryLogDump"><path codeLine="28" d="M346.82,329.59 C353.84,329.59 360.87,329.59 367.9,329.59 " fill="none" id="MemoryLogger-backto-MemoryLogDump" style="stroke:#181818;stroke-width:1.0;"/><polygon fill="none" points="333.85,329.59,339.85,333.59,345.85,329.59,339.85,325.59,333.85,329.59" style="stroke:#181818;stroke-width:1.0;"/></g><!--reverse link MemoryLogDump to Crash--><g id="link_MemoryLogDump_Crash"><path codeLine="30" d="M445,359.88 C445,381.41 445,410.27 445,430.25 " fill="none" id="MemoryLogDump-backto-Crash" style="stroke:#181818;stroke-width:1.0;stroke-dasharray:7.0,7.0;"/><polygon fill="#181818" points="445,355.01,441,364.01,445,360.01,449,364.01,445,355.01" style="stroke:#181818;stroke-width:1.0;"/><text fill="#000000" font-family="sans-serif" font-size="13" lengthAdjust="spacing" textLength="84" x="446" y="396.6569">&#171;references&#187;</text></g><!--link SimplePrioMemoryLogProvider to Crash--><g id="link_SimplePrioMemoryLogProvider_Crash"><path codeLine="31" d="M622.45,228.97 C709.47,251.55 804.35,291.55 759,353.59 C726.44,398.13 564.71,432.32 486.93,446.47 " fill="none" id="SimplePrioMemoryLogProvider-to-Crash" style="stroke:#181818;stroke-width:1.0;stroke-dasharray:7.0,7.0;"/><polygon fill="#181818" points="482.47,447.46,492.0368,449.8002,487.3907,446.5731,490.6178,441.9271,482.47,447.46" style="stroke:#181818;stroke-width:1.0;"/><text fill="#000000" font-family="sans-serif" font-size="13" lengthAdjust="spacing" textLength="72" x="771" y="334.1569">&#171;registers&#187;</text></g><!--link UserApp to MemoryLogger--><g id="link_UserApp_MemoryLogger"><path codeLine="35" d="M86.39,87.75 C122.5,136.43 205.44,248.27 244.25,300.61 " fill="none" id="UserApp-to-MemoryLogger" style="stroke:#181818;stroke-width:1.0;"/><polygon fill="#181818" points="247.65,304.19,245.5105,294.5763,244.6752,300.1712,239.0804,299.336,247.65,304.19" style="stroke:#181818;stroke-width:1.0;"/><text fill="#000000" font-family="sans-serif" font-size="13" lengthAdjust="spacing" textLength="46" x="190" y="209.1569">&#171;uses&#187;</text></g><!--link UserApp to MemoryLoggerExtensions--><g id="link_UserApp_MemoryLoggerExtensions"><path codeLine="36" d="M114.73,63.29 C147.45,63.29 194.59,63.29 245.61,63.29 " fill="none" id="UserApp-to-MemoryLoggerExtensions" style="stroke:#181818;stroke-width:1.0;"/><polygon fill="#181818" points="250.52,63.29,241.52,59.29,245.52,63.29,241.52,67.29,250.52,63.29" style="stroke:#181818;stroke-width:1.0;"/><text fill="#000000" font-family="sans-serif" font-size="13" lengthAdjust="spacing" textLength="101" x="132.75" y="56.3569">&#171;registers with&#187;</text></g><!--link UserApp to Crash--><g id="link_UserApp_Crash"><path codeLine="37" d="M66.12,87.74 C62.22,128.47 59.05,213.84 91,275.59 C152.2,393.88 323.3,435.06 403.07,448.1 " fill="none" id="UserApp-to-Crash" style="stroke:#181818;stroke-width:1.0;"/><polygon fill="#181818" points="407.65,448.99,399.392,443.623,402.7124,448.2028,398.1325,451.5232,407.65,448.99" style="stroke:#181818;stroke-width:1.0;"/><text fill="#000000" font-family="sans-serif" font-size="13" lengthAdjust="spacing" textLength="113" x="92" y="271.6569">&#171;requests dump&#187;</text></g><!--SRC=[dLDTIyCm57tlhxZK1tMIWUnDIc1C7mI5WVW3IdFR1RQatZH-eFllndIJVYKJyrAuzvoJUyzf28icLzKMuJC1TufjRWmy6wHbNSDPMGgnM2Jx9A41KAe6gSmBXFi7NLL87VeZxZHzjEMxzmQLaLgP0_7dN2s5U9AxUejhaheBlxZy2sXPD4unc-Ykj2fbnQ7mNqlOwkqxqqsmujrMCuvPatwL8kZ2LFdMxkfEVKMvsII-4F1lBkOyTZVSG9OHLjAuQ0pd_z5gTnqfUQb3q91zENP_FT-FZJPZn4vu6wEdrwcJ40pIMJesDdwnOC78JnB7OVKge0DhZQnto86OX_ZGOMvT67tXDe0I2LM1nonZu_f0MxbXUExrdXzVDBECX_w97W-iaQfox5yc3PWURusVBWWAoh_9PjCb2jOV_yMYQGm8PmRdtm00]--></g></svg>